<svg width="207" height="207" viewBox="0 0 207 207" fill="none" xmlns="http://www.w3.org/2000/svg">
<g filter="url(#filter0_i_170_253)">
<path d="M87.7058 0.034673C105.966 0.034673 123.946 2.15467 141.286 8.18467C150.686 11.4547 159.636 15.6547 166.866 22.7447C171.896 27.6847 175.386 33.4047 174.436 40.8547C173.676 46.8447 170.326 51.4347 166.026 55.3847C164.156 57.1047 162.086 58.6347 160.006 60.0947C157.496 61.8547 155.066 63.4247 151.556 63.0047C148.316 62.6147 144.946 63.7447 142.526 66.0147C136.706 71.4547 129.406 72.9147 122.026 74.2547C94.3158 79.2747 66.7958 78.6647 39.5858 71.0647C29.4858 68.2447 19.8558 64.2547 11.5058 57.7047C6.30583 53.6247 2.02583 48.8247 0.55583 42.0947C-0.74417 36.1047 1.24583 30.9447 4.81583 26.3047C10.5558 18.8347 18.4758 14.3347 26.9458 10.7447C43.7658 3.65467 61.4758 0.814673 79.5858 0.054673C82.2858 -0.055327 84.9958 0.034673 87.6958 0.034673H87.7058Z" fill="#7896E3"/>
<path d="M116.636 131.335C110.526 142.605 109.386 154.115 113.736 165.955C116.906 174.575 122.556 181.265 130.316 186.215C145.536 195.935 165.566 194.115 179.536 181.695C192.886 169.825 196.656 149.635 188.456 133.265C180.266 116.915 163.286 110.135 151.956 111.095V127.355C140.996 119.145 130.476 111.255 119.716 103.195C130.436 95.1547 140.916 87.3047 151.846 79.1147V96.0747C157.316 97.0847 162.496 97.6147 167.416 99.0247C190.036 105.485 205.946 125.965 206.846 149.425C208.066 181.095 182.246 207.255 150.456 206.575C123.606 206.005 100.516 184.905 97.466 158.235C96.356 148.575 97.556 139.275 101.386 130.345C101.666 129.685 102.666 128.775 103.186 128.865C107.586 129.555 111.956 130.455 116.636 131.345V131.335Z" fill="#7896E3"/>
<path d="M0.0464139 53.3848C4.87641 66.1748 15.4664 72.3148 26.9264 77.2048C46.5964 85.5948 67.3864 88.2548 88.5864 88.0048C97.2964 87.9048 106.006 87.1048 114.716 86.6248C113.746 87.3848 112.646 88.3748 111.416 89.1748C103.326 94.4648 101.146 104.415 106.376 112.285C106.456 112.405 106.446 112.575 106.376 112.275C103.246 112.615 100.006 112.685 96.9164 113.395C95.0464 113.825 93.2364 115.045 91.7264 116.305C90.3564 117.455 89.0164 117.875 87.3264 117.855C71.1064 117.615 55.0564 116.035 39.4564 111.385C27.9764 107.965 16.9664 103.505 8.08641 95.0648C2.81641 90.0548 -0.143586 84.0348 0.00641388 76.5548C0.166414 68.8348 0.0464139 61.1148 0.0464139 53.3848Z" fill="#7896E3"/>
<path d="M0.115996 134.025C4.566 146.195 14.496 152.215 25.276 157.105C40.966 164.225 57.666 167.165 74.746 168.275C76.986 168.425 79.236 168.445 81.456 168.705C82.106 168.785 83.096 169.375 83.246 169.915C86.006 180.155 90.826 189.315 97.546 197.485C97.626 197.585 97.596 197.765 97.686 198.445C94.336 198.445 91.046 198.465 87.766 198.445C69.106 198.335 50.746 196.205 33.046 189.945C23.946 186.735 15.336 182.595 8.236 175.855C2.896 170.785 -0.154004 164.745 0.00599563 157.165C0.165996 149.895 0.0359956 142.625 0.0359956 135.355C0.0359956 134.915 0.0859956 134.465 0.115996 134.025Z" fill="#7896E3"/>
<path d="M0.145937 93.7446C4.63594 106.005 14.7559 112.025 25.6559 116.985C37.7059 122.475 50.5159 125.405 63.6259 126.875C70.0659 127.595 76.5659 127.865 83.0359 128.345C83.5459 128.385 84.0559 128.485 84.8959 128.605C81.6659 138.145 80.5759 147.805 81.3559 158.005C77.7559 157.785 74.4659 157.665 71.1859 157.375C55.2359 155.995 39.6659 152.955 24.9859 146.325C17.3859 142.895 10.3359 138.645 5.04594 131.975C2.23594 128.425 0.305937 124.435 0.205937 119.915C0.0159366 111.195 0.145937 102.465 0.145937 93.7446Z" fill="#7896E3"/>
<path d="M174.436 53.4246C174.256 63.5646 175.246 73.7246 174.016 84.1245C172.106 83.5546 170.596 83.2346 169.206 82.6346C168.686 82.4146 168.126 81.5246 168.146 80.9546C168.276 76.2046 167.066 71.9346 163.756 68.1646C168.526 64.0846 172.576 59.5946 174.436 53.4146V53.4246Z" fill="#7896E3"/>
</g>
<defs>
<filter id="filter0_i_170_253" x="0" y="0" width="206.888" height="210.588" filterUnits="userSpaceOnUse" color-interpolation-filters="sRGB">
<feFlood flood-opacity="0" result="BackgroundImageFix"/>
<feBlend mode="normal" in="SourceGraphic" in2="BackgroundImageFix" result="shape"/>
<feColorMatrix in="SourceAlpha" type="matrix" values="0 0 0 0 0 0 0 0 0 0 0 0 0 0 0 0 0 0 127 0" result="hardAlpha"/>
<feOffset dy="4"/>
<feGaussianBlur stdDeviation="2"/>
<feComposite in2="hardAlpha" operator="arithmetic" k2="-1" k3="1"/>
<feColorMatrix type="matrix" values="0 0 0 0 0 0 0 0 0 0 0 0 0 0 0 0 0 0 0.25 0"/>
<feBlend mode="normal" in2="shape" result="effect1_innerShadow_170_253"/>
</filter>
</defs>
</svg>
