<svg width="207" height="207" viewBox="0 0 207 207" fill="none" xmlns="http://www.w3.org/2000/svg">
<g filter="url(#filter0_i_171_262)">
<line x1="-3.93402e-07" y1="202.5" x2="207" y2="202.5" stroke="#7896E3" stroke-width="9"/>
</g>
<g filter="url(#filter1_i_171_262)">
<path d="M96.2218 186.778C100.518 191.074 107.482 191.074 111.778 186.778L181.782 116.775C186.078 112.479 186.078 105.514 181.782 101.218C177.486 96.9225 170.521 96.9225 166.225 101.218L104 163.444L41.7746 101.218C37.4788 96.9225 30.514 96.9225 26.2183 101.218C21.9225 105.514 21.9225 112.479 26.2183 116.775L96.2218 186.778ZM93 4.80825e-07L93 179L115 179L115 -4.80825e-07L93 4.80825e-07Z" fill="#7896E3"/>
</g>
<defs>
<filter id="filter0_i_171_262" x="0" y="198" width="207" height="13" filterUnits="userSpaceOnUse" color-interpolation-filters="sRGB">
<feFlood flood-opacity="0" result="BackgroundImageFix"/>
<feBlend mode="normal" in="SourceGraphic" in2="BackgroundImageFix" result="shape"/>
<feColorMatrix in="SourceAlpha" type="matrix" values="0 0 0 0 0 0 0 0 0 0 0 0 0 0 0 0 0 0 127 0" result="hardAlpha"/>
<feOffset dy="4"/>
<feGaussianBlur stdDeviation="2"/>
<feComposite in2="hardAlpha" operator="arithmetic" k2="-1" k3="1"/>
<feColorMatrix type="matrix" values="0 0 0 0 0 0 0 0 0 0 0 0 0 0 0 0 0 0 0.25 0"/>
<feBlend mode="normal" in2="shape" result="effect1_innerShadow_171_262"/>
</filter>
<filter id="filter1_i_171_262" x="22.9961" y="0" width="162.008" height="194" filterUnits="userSpaceOnUse" color-interpolation-filters="sRGB">
<feFlood flood-opacity="0" result="BackgroundImageFix"/>
<feBlend mode="normal" in="SourceGraphic" in2="BackgroundImageFix" result="shape"/>
<feColorMatrix in="SourceAlpha" type="matrix" values="0 0 0 0 0 0 0 0 0 0 0 0 0 0 0 0 0 0 127 0" result="hardAlpha"/>
<feOffset dy="4"/>
<feGaussianBlur stdDeviation="2"/>
<feComposite in2="hardAlpha" operator="arithmetic" k2="-1" k3="1"/>
<feColorMatrix type="matrix" values="0 0 0 0 0 0 0 0 0 0 0 0 0 0 0 0 0 0 0.25 0"/>
<feBlend mode="normal" in2="shape" result="effect1_innerShadow_171_262"/>
</filter>
</defs>
</svg>
