<?xml version="1.0" encoding="UTF-8"?>
<svg id="Layer_1" data-name="Layer 1" xmlns="http://www.w3.org/2000/svg" viewBox="0 0 1709.46 577.97">
  <defs>
    <style>
      .cls-1 {
        fill: #979797;
      }

      .cls-2 {
        fill: #9d9d9d;
      }

      .cls-3 {
        fill: #262626;
      }

      .cls-4 {
        fill: #747575;
      }

      .cls-5 {
        fill: #5f6060;
      }

      .cls-6 {
        fill: #fff;
      }

      .cls-7 {
        fill: #333434;
      }

      .cls-8 {
        fill: #535454;
      }

      .cls-9 {
        fill: #c5c5c5;
      }

      .cls-10 {
        fill: #232424;
      }

      .cls-11 {
        fill: #81a536;
      }

      .cls-12 {
        fill: #5e5f5f;
      }

      .cls-13 {
        fill: #c9caca;
      }

      .cls-14 {
        fill: #bfbfbf;
      }

      .cls-15 {
        fill: #020303;
      }

      .cls-16 {
        fill: #363636;
      }

      .cls-17 {
        fill: #dcdddd;
      }

      .cls-18 {
        fill: #989898;
      }

      .cls-19 {
        fill: #323232;
      }

      .cls-20 {
        fill: #424343;
      }

      .cls-21 {
        fill: #262727;
      }

      .cls-22 {
        fill: #3a4a1a;
      }

      .cls-23 {
        fill: #909090;
      }

      .cls-24 {
        fill: #bfc0c0;
      }

      .cls-25 {
        fill: #818282;
      }

      .cls-26 {
        fill: #afb0b0;
      }

      .cls-27 {
        fill: #686969;
      }

      .cls-28 {
        fill: #a3cf44;
      }

      .cls-29 {
        fill: #b6b7b7;
      }

      .cls-30 {
        fill: #161717;
      }

      .cls-31 {
        fill: #cfd0d0;
      }

      .cls-32 {
        fill: #3b3c3c;
      }

      .cls-33 {
        fill: #404141;
      }

      .cls-34 {
        fill: #818181;
      }

      .cls-35 {
        fill: #969696;
      }

      .cls-36 {
        fill: #c2c3c3;
      }

      .cls-37 {
        fill: gray;
      }

      .cls-38 {
        fill: #5b5c5c;
      }

      .cls-39 {
        fill: #8f8f8f;
      }

      .cls-40 {
        fill: #3f511c;
      }

      .cls-41 {
        fill: #8e8e8e;
      }

      .cls-42 {
        fill: #898989;
      }

      .cls-43 {
        fill: #7d7d7d;
      }

      .cls-44 {
        fill: #5c5d5d;
      }

      .cls-45 {
        fill: #a1a1a1;
      }

      .cls-46 {
        fill: #303e15;
      }

      .cls-47 {
        fill: #fdfdfd;
      }

      .cls-48 {
        fill: #6d6e6e;
      }

      .cls-49 {
        fill: #6c6d6d;
      }

      .cls-50 {
        fill: #545555;
      }

      .cls-51 {
        fill: #454646;
      }

      .cls-52 {
        fill: #d2d3d3;
      }

      .cls-53 {
        fill: #b6b6b6;
      }

      .cls-54 {
        fill: #858585;
      }

      .cls-55 {
        fill: #7c9d34;
      }

      .cls-56 {
        fill: #717272;
      }

      .cls-57 {
        fill: #383838;
      }

      .cls-58 {
        fill: #8b8c8c;
      }

      .cls-59 {
        fill: #b3b3b3;
      }

      .cls-60 {
        fill: #efefef;
      }

      .cls-61 {
        fill: #9a9a9a;
      }

      .cls-62 {
        fill: #d6d7d7;
      }

      .cls-63 {
        fill: #c2c2c2;
      }

      .cls-64 {
        fill: #7b7b7b;
      }

      .cls-65 {
        fill: #b5b5b5;
      }

      .cls-66 {
        fill: #8a8a8a;
      }

      .cls-67 {
        fill: #5b5b5b;
      }

      .cls-68 {
        fill: #f8f8f8;
      }

      .cls-69 {
        fill: #eee;
      }

      .cls-70 {
        fill: #121313;
      }

      .cls-71 {
        fill: #344317;
      }

      .cls-72 {
        fill: #d0d0d0;
      }

      .cls-73 {
        fill: #888989;
      }

      .cls-74 {
        fill: #fefefe;
      }

      .cls-75 {
        fill: #131414;
      }

      .cls-76 {
        fill: #fcfcfc;
      }

      .cls-77 {
        fill: #1f2020;
      }
    </style>
  </defs>
  <path class="cls-15" d="m289.6,577.94c-13.8-.77-26.48-5.21-38.43-11.57-11.98-6.38-21.46-15.74-30.57-25.44-.91-3.78-3.04-6.38-7.23-7-8.93-8.14-17.39-16.71-25.8-25.35-11.7-12.02-23.96-23.53-35.99-35.25-.73-3.95-3.15-6.28-7.23-7-9.23-8.45-18.04-17.3-26.74-26.27-11.38-11.72-23.33-22.91-35.04-34.33-.41-.45-.64-.99-.56-1.57.51-3.44-.71-5.28-4.59-4.81-.74.09-1.45-.22-2.08-.62-8.28-7.8-16.57-15.55-24.32-23.88-7.76-8.35-16.59-15.77-24.53-23.98-13.28-13.73-22.13-29.68-24.63-48.6-.48-3.66-1.76-7.24-.94-11-.49-2.34-.5-4.67,0-7.01.31-3.75-.69-7.63,1.17-11.23,5.54-2.28,2.93-6.04,1.85-9.52.87-2.32,1.75-4.63,2.62-6.95q5.56-3.1,2.7-6.93c2.57-6.38,6.94-11.7,10.8-17.33,1.57-.81,2.78-1.93,3.34-3.62,18.38-18.03,36.68-36.15,55.58-53.68q4.93.75,6.28-5.19c17.48-17.03,34.95-34.07,52.46-51.07,3.66-3.55,7.45-6.99,11.17-10.47,4.73.74,5.14.51,6.13-3.72.2-.86.43-1.67,1.04-2.33,9.2-9,18.4-18.01,27.61-27,11.73-11.45,23.47-22.89,35.2-34.34.28-.33.64-.5,1.08-.52,4.51,1.27,4.72-2.43,6.02-4.87,11.12-12.63,24.33-22.5,40.37-28.65.72-.82,1.41-1.69,2.73-1.49,7.45-1.51,14.89-3.03,22.34-4.54,1.78-.63,3.63-.17,5.45-.31,2.62,0,5.23,0,7.85,0,1.55.11,3.14-.27,4.66.3,5.6,1.19,11.25,2.2,16.78,3.62,13.84,3.55,26.38,9.61,36.76,19.3,10.92,10.2,21.61,20.63,32.4,30.96.33.28.6.6.82.97-.15,3.78,2.65,4.93,5.65,5.9,12.48,11.97,25.3,23.62,37.31,36.01,7.92,8.16,16.06,16.07,24.34,23.86,2.44,1.14,4.5,2.66,5.43,5.26,2.14,2.18,4.25,4.39,6.43,6.54,17.95,17.65,35.91,35.3,53.88,52.93,1.03,1.01,2.18,1.91,3.27,2.86,3.23,1.54,5.62,3.89,7.22,7.01,7.01,6.87,13.91,13.86,21.06,20.59,8.05,7.57,15.41,15.69,22.15,24.36.76.34,1.28.91,1.69,1.6.85,1.12,1.04,2.52,1.71,3.71,3.91,8.33,7.58,16.75,9.36,25.79.62,3.16,1,6.38,1.48,9.57.74,1.44.23,2.99.38,4.47-1.27,2.27-3.8,4.48-.33,6.96.45.42.83.89,1.09,1.44.12.4.05.77-.2,1.12l-.22-.09c-.83,1.4.14,3.07-.71,4.47-.87,4.88-1.74,9.76-2.61,14.64.54,1.36-.1,2.43-.9,3.47-1.89,4.33-3.78,8.67-5.68,13-3.73,1.01-5,3.44-4.31,7-.86,2.43-2.08,4.61-4.41,6.04-2.69,1.19-5.76,2.13-4.48,6.07-14.46,14.08-28.89,28.18-43.39,42.23-6.39,6.2-12.9,12.29-19.35,18.44-.61.5-1.32.64-2.09.55-3.18-.39-4.75,1.05-5.07,4.04-.09.85-.49,1.66-.98,2.4-13.6,13.25-27.17,26.53-40.81,39.75-7.23,7.01-14.57,13.91-21.86,20.86-3.29,1.08-6.64,2.08-7.24,6.12-13.6,13.25-27.17,26.53-40.81,39.75-7.23,7.01-14.57,13.91-21.86,20.86-2.2,1.62-6.84.47-6.28,5.2-11.33,12.39-25.53,20.02-41.94,24.35-5.42,1.43-10.8,2.64-16.36,3.19-2.11-.6-4.28-.14-6.42-.29-1.68,0-3.36,0-5.04,0-1.89.14-3.81-.31-5.67.29Z"/>
  <path class="cls-15" d="m1705.85,354.55c-1.83,7.23-5.25,13.4-11.8,17.77-3.28,2.19-6.66,3.72-10.64,3.94-2.42.53-4.83.48-7.25.03-8.16-.68-14.18-5.03-18.1-11.45-2.88-4.71-6.21-9.31-8-14.62-.74-.67-1.67-.5-2.54-.5-20.53,0-41.06,0-61.59,0-.74,0-1.49-.01-2.17.36-2.92,5.08-5.58,10.33-8.84,15.21-3.95,5.93-9.16,10.45-16.99,10.98-2.41.5-4.83.5-7.24,0-10.38.55-23.8-13.87-22.43-21.7-.99-2.58.21-5.34-.69-7.93,2.39-9.08,7.35-17.08,11.37-25.48,11.67-24.33,23.39-48.63,35.06-72.96,5.74-11.96,11.23-24.03,17.16-35.89,4.76-9.51,12.89-15.59,23.74-16.19,10.9-.6,20.16,4.13,25.62,13.5,8.16,14,14.33,28.98,21.32,43.56,14.16,29.54,28.16,59.15,42.26,88.72.86,1.8,1.63,3.59,1.79,5.58.53,2.35.57,4.71-.03,7.06Z"/>
  <path class="cls-15" d="m1196.76,354.55c-1.52,4.45-3.01,8.81-6.2,12.61-4.3,5.12-9.39,8.45-16.24,9.1-2.42.53-4.83.48-7.25.03-8.16-.68-14.18-5.03-18.1-11.45-2.88-4.71-6.21-9.31-8-14.62-.74-.67-1.67-.5-2.54-.5-20.53,0-41.06,0-61.59,0-.74,0-1.49-.01-2.17.36-2.92,5.08-5.58,10.33-8.84,15.21-3.96,5.93-9.16,10.45-16.99,10.98-2.41.5-4.83.5-7.24,0-10.38.55-23.8-13.87-22.43-21.7-.99-2.58.21-5.34-.69-7.93,2.51-9.48,7.73-17.84,11.87-26.65,10.06-21.38,20.23-42.7,30.44-64.01,5.32-11.1,10.82-22.12,16.22-33.18,1.84-3.77,3.47-7.65,5.49-11.32,5-9.04,12.9-14.72,23.39-15.37,7.08-.43,13.89,1.83,19.67,6.69,6.85,5.75,9.58,13.72,13.34,21.12,5.03,9.91,9.56,20.06,14.34,30.09,10.46,21.96,21.14,43.83,31.32,65.91,4.2,9.12,9.38,17.86,12.23,27.55.53,2.35.57,4.71-.03,7.06Z"/>
  <path class="cls-15" d="m759.4,194.96c17.07.31,33.39,3.96,48.53,11.51,9.5,4.74,16.13,12.1,16.85,23.14.61,2.08.59,4.16,0,6.25-.17,7.56-11.6,20.86-21.54,20.79-2.41.53-4.81.52-7.22.01-5.07.23-9.61-1.92-13.84-3.91-7.87-3.7-16.26-5.04-24.62-6.74-3.02-.49-6.05-.5-9.07,0-7.45,1.26-14.55,3.28-20.66,7.9-9.74,7.35-16.94,16.11-17.66,28.63.45,2.61.41,5.22.02,7.83.33,6.63,3.09,12.57,7.15,17.53,8.37,10.22,18.54,18,33,18.15,1.8.46,3.6.46,5.39,0,10.87-.46,20.74-4.26,30.55-8.37,3.01-1.26,6.19-2.53,9.66-2.24,1.86-.56,3.72-.56,5.58,0,9.74-.62,22.65,10.97,23.25,19.91.61,2.08.6,4.16,0,6.24-.6,11.91-8,19.37-18.08,24.53-10.11,5.18-21.17,7.93-32.38,10.07-3.49.67-6.99.89-10.52.94-1.51.61-3.1.2-4.65.32-4.16.19-8.35-.4-12.5.32-17.08-.91-32.73-6.13-46.66-15.57-17.6-11.93-30.59-27.46-37.82-47.31-4.79-13.17-5.28-26.86-3.92-40.31,2.36-23.28,14.29-42.18,32.24-57.57,13.91-11.92,30.27-19,48.55-21.9,2.47-.39,5.06-.11,7.6-.14,4.25-.57,8.49-.57,12.74,0Z"/>
  <path class="cls-15" d="m873.93,376.05c-4.77-1.03-9.55-2.03-13.28-5.44-5.06-4.62-7.38-10.33-7.4-16.99-.4-1.44-.4-2.87,0-4.31-.6-5.77,3.31-9.74,6.22-13.99,19.59-28.61,39.3-57.14,58.96-85.71.79-1.15,1.45-2.38,2.17-3.58-.58-2.26-2.45-1.09-3.66-1.12-10.42-.28-20.85.31-31.26-.33-8.83.09-16.11-3.25-21.76-9.66-2.79-3.17-4.71-6.94-4.96-11.27.5-2.61.46-5.22.02-7.84,1.63-10.23,11.69-18.31,22.1-19,1.59-.11,2.9-1.57,4.62-.77,3.54.67,7.12.27,10.68.28,22.64.05,45.28.01,67.91.04,1.61,0,3.28-.36,4.84.36,9.79-.59,21.52,8.07,24.08,18.48.4,1.62.68,3.27,1.02,4.91.54,2.05.51,4.11.02,6.16-11.34,19.4-24.53,37.68-36.73,56.56-9.29,14.37-18.71,28.65-28.08,42.98.55,2.51,2.64,1.32,3.97,1.33,11.03.11,22.06.05,33.09.08,1.47,0,2.98-.29,4.41.32,14.2,1.45,23.54,9.48,25.14,21.7.48,1.77.51,3.54-.02,5.31-2.78,12.51-11.9,20.05-26.01,21.51-.98-.5-2.04-.34-3.07-.34-29.98,0-59.96,0-89.94,0-1.03,0-2.1-.16-3.08.33Z"/>
  <path class="cls-15" d="m1401.05,244.58c-11.36-.09-20.25-4.35-25.74-14.29-1.12-2.03-1.84-4.21-1.24-6.58-.93-2.3.22-4.78-.68-7.08,3.45-12.69,9.88-18.16,23.51-19.82,1.15-.14,1.97-1.41,3.26-.77,1.59.56,3.25.29,4.87.29,26.96.02,53.93,0,80.89.03,1.61,0,3.28-.36,4.84.36,13.24.17,24.28,8.94,25.05,19.89.61,2.08.6,4.16,0,6.24-.57,9.5-9.26,18.43-18.3,20.66-2.23.55-4.57.71-6.86,1.05-6.19.72-12.41-.04-18.61.4-1.31,1.36-.64,3.03-.64,4.53-.05,32.28-.03,64.56-.05,96.84,0,1.57.28,3.17-.29,4.71-1.8,3.74-1.53,8.02-3.7,11.76-4.4,7.57-10.76,12.05-19.63,13.25-2.37-.92-4.94.2-7.32-.66-10.51-.03-22.7-13.43-21.31-25.25.5-1.1.3-2.27.3-3.41,0-32.7.01-65.41-.02-98.11,0-1.23.55-2.61-.64-3.67-5.9-.43-11.82.31-17.71-.38Z"/>
  <path class="cls-15" d="m1238.79,310.14c-11.48-.08-24.27-9.91-24.91-20.61.5-2.62.46-5.25.02-7.87,1.66-10.35,11.9-18.08,21.79-19.04,19.43-1.88,38.9-.44,58.35-.81,11.32-.22,22.67-.37,33.98.05,11.6.43,21.68,4.05,26.76,15.39.86,1.93,1.66,3.9,1.54,6.08.53,2.08.57,4.17-.02,6.25-1.83,11.24-12.18,19.93-24.25,20.54-4.74-.57-9.5-.24-14.26-.24-24.71-.04-49.42-.03-74.12,0-1.62,0-3.28-.26-4.87.27Z"/>
  <path class="cls-15" d="m1264.88,427.2c4.39,1.05,7.07,4.16,9.73,7.38,6.18,7.48,12.46,14.89,18.8,22.45,1.56-1.18.65-2.65,1.13-3.74.61-1.56.17-3.18.31-4.77-.16-3.04.34-6.11-.3-9.13.44-6.12,3.65-10.18,9.66-12.16,2.42-.58,4.83-.58,7.25,0,6.34,2.18,8.93,7.05,9.95,13.03.69,14.07.21,28.15.26,42.23.03,7.89.42,15.79-.27,23.68-.45,4.82-3.11,8.46-6.95,11.25-4.83,3.5-14.44,2.65-18.24-4.51-.94-1.77-2.16-3.64-1.66-5.86.47-2.62.48-5.25,0-7.87-5.12-5.8-10.24-11.6-15.36-17.39-1.94-.77-2.48-.15-2.43,1.84.14,5.74.09,11.49.03,17.24-.02,1.82.33,3.79-1.35,5.24-.88,4.12-2.25,7.81-5.87,10.74-5.44,4.4-15.61,2.91-18.78-3.21-1.07-2.07-2.83-4-1.94-6.63.62-3.85.26-7.73.27-11.6.05-17.96.03-35.92,0-53.88,0-1.57.27-3.16-.28-4.7.93-5.35,4.7-8.02,9.66-9.58,2.12-.63,4.25-.52,6.38-.06Z"/>
  <path class="cls-15" d="m1566.8,506.03c-8.37-2.04-12.54,2.84-15.8,9.06-1.39,2.65-3.68,3.71-6.49,4.15-1.76.85-3.76-.17-5.53.67-6.04-1.49-9.65-5.19-10.78-11.13-.48-1.75-.54-3.5.04-5.24.33-4.02,2.94-7.19,4.55-10.69,5.13-11.11,10.72-22.02,16.07-33.04,1.87-3.86,3.54-7.81,5.3-11.72-.43-2.57.54-4.56,2.69-6.06,3.18-5.23,4.77-11.69,11.58-14.13.65-.23,1.31-.44,1.97-.66,2.12-.6,4.25-.53,6.37-.04,4.57,1.54,8.05,4.12,10.17,8.58,10.34,21.71,20.9,43.32,31.24,65.03,3.73,7.83-.78,16.66-9.12,18.45-2.13.44-4.26.57-6.39-.07-4.49-.21-6.14-4.09-8.67-6.62-1.57-1.58-2.06-4.17-3.04-6.3-8.05-1.07-16.11-.61-24.17-.24Z"/>
  <path class="cls-15" d="m1649.38,427.2c3.97.74,6.43,3.47,8.85,6.26,1.98,1.38,2.29,3.09,1.09,5.1-.59,1.16.51,1.77.9,2.61.9,3.45-.47,7.06.78,10.48,7.76-6.99,15.24-14.24,22.48-21.72.78-1.96,2.43-2.52,4.41-2.53,1.16-.07,2.31-.13,3.47-.2,2.14-.49,4.28-.54,6.41.03,4.1,1.69,6.29,5.04,8.12,8.71.38,1.58.63,3.18.81,4.8-.18,1.21-.6,2.29-1.68,3.04-3.45,5.66-9,9.46-13.51,14.18-2.73,2.85-5.62,5.56-8.53,8.24-1.55,1.42-1.75,2.47-.37,4.33,6.93,9.34,13.64,18.83,20.45,28.25,1.25,1.73,2.22,3.58,2.81,5.61.53,1.77.52,3.54,0,5.31-1.61,4.84-4.51,8.42-9.98,9.43-7.55,1.4-12.12-2.69-15.97-8.13-5.13-7.25-10.21-14.53-15.5-21.68-.6-.82-1.29-3.48-3.51-1.43-1.15,5.77.21,11.64-.71,17.42-.35.75-1.02,1.51-.99,2.25.23,5.74-3.66,9.09-8.18,10.95-4.58,1.88-9.91,1.53-13.75-2.23-2.45-2.4-4.58-5.39-3.95-9.24.66-4.86.25-9.75.27-14.62.06-16.09.03-32.18.01-48.27,0-1.57.27-3.16-.29-4.7-.63-3.08.8-5.5,2.67-7.77.94-.73,1.55-.34,2.03.54.43,2.06-2.06,3.41-1.48,5.54,3.6-2.26,4.16-3.77,2.38-6.39-.63-.62-1.15-1.26-.35-2.09,1.39-.83,2.65-1.91,4.39-2.02,2.13-.57,4.26-.52,6.39-.03Z"/>
  <path class="cls-15" d="m1436.06,493.89c6.42-.96,12.33-3.36,18.36-5.6,3.77-1.4,12.15.74,14.74,5.85.57,1.12,1.25,2.19,1.88,3.29.56,2.07.58,4.13-.01,6.19-2.87,9.39-11.15,12.17-19.5,14.6-4.42,1.28-9.06,1.87-13.72,1.94-2.4.47-4.79.46-7.19.01-18.53-.85-30.93-10.74-39.89-25.5-3.16-5.21-5.29-10.85-5.03-17.07-.51-3.49-.55-6.98.03-10.46,1.06-12.25,7.09-21.71,16.67-29.63,4.95-4.09,10.34-7.04,16.27-9.18,2.92-1.05,6.14-1.35,9.22-1.98,3.92-.54,7.84-.53,11.76,0,7.49.84,14.87,2.19,21.74,5.35,4.93,2.27,8.54,5.72,9.65,11.14.57,1.78.55,3.56,0,5.35-1.74,4.69-4.96,7.95-9.89,9.55-2.12.5-4.24.54-6.36-.02-3.67-.26-6.7-2.36-10.12-3.3-8.77-2.4-17.31-2.59-24.91,3.26-4,3.08-6.78,6.93-7.16,12.06-.65,2.06-.44,4.13-.1,6.2-.91,6.19,9.08,15.5,15.2,17.22.95.27,1.91.5,2.86.75,1.84-.42,3.67-.44,5.51.01Z"/>
  <path class="cls-15" d="m1368.88,506.23c-.48,10.15-11.05,17.31-22.41,10.29-2.65-1.19-4.4-2.91-3.81-6.02.7-1.42-1.64-2.86.02-4.28-.68-2.26-.3-4.58-.31-6.86-.04-18.14-.03-36.28,0-54.42,0-1.57-.3-3.17.31-4.71-1.07-4.26,1.19-8.75,5.66-11.21,1.11-.61,2.24-1.21,3.35-1.81,2.43-.53,4.86-.53,7.29,0,5.95,2.45,9.7,6.47,9.9,13.01.7,2.41.3,4.87.31,7.3.04,18,.03,36.01,0,54.01,0,1.57.31,3.17-.32,4.7Z"/>
  <path class="cls-15" d="m1496.94,519.3c-5.98-2.47-9.47-6.54-9.09-13.13-.71-8.75-.29-17.51-.27-26.27.03-13.5-.42-27.01.26-40.5.43-6.82,2.86-9.8,9.94-12.19,2.13-.57,4.26-.53,6.39-.02,3.94,1.23,6.57,3.97,8.86,7.12,1.97,1.38,2.31,3.09,1.09,5.1-.15.24-.18.5-.08.77.81,3.42.33,6.88.34,10.32.06,17.3.04,34.6.01,51.9,0,1.56.36,3.17-.36,4.69-.51,6.49-5.43,11.61-11.7,12.19-1.79,1.24-3.58,1.18-5.38,0Z"/>
  <path class="cls-31" d="m1471.08,351.05c-.04-34.82-.09-69.63-.11-104.45,0-.73-.46-1.8.9-2.02.3.15.4.32.31.49-.09.18-.18.27-.28.27-.02,33.43-.03,66.86-.09,100.29,0,1.81.6,3.76-.74,5.43Z"/>
  <path class="cls-70" d="m1418.86,244.48c1.55,1.04.98,2.61.98,3.97.03,32.67.03,65.34.01,98.02,0,1.26.36,2.62-.73,3.69-.05-32.06-.1-64.12-.16-96.19,0-2.89-.09-5.77-.14-8.66-.22-.2-.29-.38-.2-.57.08-.18.17-.27.24-.27Z"/>
  <path class="cls-23" d="m873.93,376.05c.98-1.4,2.46-.72,3.69-.72,29.41-.04,58.82-.04,88.23,0,1.39,0,3-.67,4.17.73-32.03,0-64.06,0-96.09-.01Z"/>
  <path class="cls-19" d="m1238.79,310.14c.93-1.05,2.19-.7,3.34-.7,28.86-.01,57.72-.01,86.58,0,1.14,0,2.41-.41,3.33.67-22.46.06-44.92.14-67.38.17-8.62.01-17.25-.1-25.87-.15Z"/>
  <path class="cls-70" d="m1490.76,196.73c-28.93.01-57.86.03-86.78.02-1.3,0-2.71.35-3.82-.71,29.44-.05,58.88-.09,88.32-.12.83,0,1.83-.26,2.29.81Z"/>
  <path class="cls-6" d="m1275.44,506.11v-29.18c1.67,2.17,2.71,3.51,3.75,4.86-2.04,6.58-.44,13.32-.92,19.97-.14,1.99.28,4.22-2.83,4.35Z"/>
  <path class="cls-70" d="m969.13,196.73c-26.54.01-53.08.03-79.61.02-1.3,0-2.71.35-3.82-.71,27.05-.05,54.1-.09,81.15-.12.83,0,1.83-.26,2.29.81Z"/>
  <path class="cls-75" d="m1248.84,436.83c1.1,1.08.71,2.44.72,3.7.02,20.93.02,41.86,0,62.78,0,1.26.4,2.63-.71,3.7,0-23.39,0-46.79,0-70.18Z"/>
  <path class="cls-30" d="m1633.34,439.43c1,.93.73,2.14.73,3.27.01,20.35.01,40.71,0,61.06,0,1.12.3,2.34-.72,3.26,0-22.53,0-45.06,0-67.59Z"/>
  <path class="cls-72" d="m1487.85,439.41c0,22.26,0,44.51,0,66.77-1.09-1.07-.76-2.43-.76-3.7-.02-19.79-.02-39.58,0-59.36,0-1.27-.32-2.63.75-3.71Z"/>
  <path class="cls-33" d="m1514.02,507.1c0-22.3,0-44.6.01-66.91,1.36.77.8,2.06.8,3.12.03,20.06.04,40.13,0,60.19,0,1.21.54,2.63-.82,3.59Z"/>
  <path class="cls-39" d="m1342.67,440.23c0,22,0,44,0,65.99-1.13-.87-.77-2.1-.77-3.21-.02-19.86-.02-39.72,0-59.59,0-1.1-.38-2.34.77-3.2Z"/>
  <path class="cls-34" d="m1368.88,506.23c0-22,0-44.01,0-66.01,1.19.85.77,2.1.77,3.19.03,19.88.02,39.75,0,59.63,0,1.1.39,2.34-.78,3.19Z"/>
  <path class="cls-13" d="m1321.4,506.18c0-21.97,0-43.94,0-65.91,1.11,1.06.75,2.42.75,3.67.02,19.52.02,39.04,0,58.57,0,1.26.33,2.61-.76,3.67Z"/>
  <path class="cls-24" d="m1583.75,350.08c.65-1.18,1.83-.76,2.79-.76,20.31-.02,40.63-.03,60.94.01.88,0,2.18-.63,2.57.89-22.1-.05-44.2-.1-66.3-.14Z"/>
  <path class="cls-24" d="m1074.66,350.08c.65-1.18,1.83-.76,2.79-.76,20.31-.02,40.63-.03,60.94.01.88,0,2.18-.63,2.57.89-22.1-.05-44.2-.1-66.3-.14Z"/>
  <path class="cls-56" d="m970.91,327.54c-13.08.03-26.16.08-39.24.03-.89,0-3.44,1.1-2.24-1.75,1.17,1.71,2.97.89,4.46.9,10.8.08,21.61.01,32.41.08,1.54,0,3.27-.63,4.6.74Z"/>
  <path class="cls-15" d="m156.07,102.21c-.24,2.8,1.34,6.33-3,7.54-1.64.46-3.61,1.17-4.17-1.49,2.23-2.2,3.8-5.12,7.17-6.05Z"/>
  <path class="cls-15" d="m3.94,263.52c.5.69,1.02,1.37,1.5,2.06,3.07,4.45,2.2,6.39-3.35,7.45-.67-3.4,1.05-6.38,1.85-9.52Z"/>
  <path class="cls-15" d="m75.35,398.73c.15,0,.3,0,.44-.02,6.97-1.22,8.6.47,6.79,7.02-.25-.06-.5-.11-.76-.14-1.48-.88-3.31-1.42-3.58-3.47-.96-1.13-1.93-2.26-2.89-3.39Z"/>
  <path class="cls-15" d="m85.27,169.81c.69,2.37,1.66,4.81-1.41,6.38-1.96,1-3.72,1.03-4.87-1.18,1.91-1.94,3.28-4.49,6.28-5.19Z"/>
  <path class="cls-69" d="m885.68,244.58c11.2-.05,22.39-.11,33.59-.12.85,0,3.09-.68,1.33,1.57-1.4-1.24-3.13-.7-4.71-.71-8.65-.05-17.3,0-25.94-.04-1.44,0-3.01.44-4.27-.7Z"/>
  <path class="cls-15" d="m503.9,417.85c-1.01-7.33,2.23-8.95,8.13-6.99-.06.24-.11.49-.14.73-1,1.12-1.86,2.41-3.59,2.59-1.47,1.22-2.94,2.44-4.41,3.66Z"/>
  <path class="cls-6" d="m539.67,196.01c-2.41-2.34-4.82-4.67-7.22-7.01,6.49-1.68,7.34-.86,7.22,7.01Z"/>
  <path class="cls-15" d="m9.26,249.63c2.59-.08,3.61,1.52,3.19,3.57-.61,2.94-3.14,3.51-5.88,3.36.13-2.59,1.37-4.78,2.7-6.93Z"/>
  <path class="cls-15" d="m144.36,466.33q7.32-.09,7.23,7c-2.41-2.33-4.82-4.67-7.23-7Z"/>
  <path class="cls-15" d="m213.37,533.93q7.32-.09,7.23,7c-.25-.06-.5-.11-.76-.14-1.27-.55-2.2-1.42-2.75-2.66-1.24-1.4-2.48-2.8-3.72-4.2Z"/>
  <path class="cls-15" d="m225.98,35.48c.06,6.38-1.09,7.32-6.28,5.19-.29-1.47.55-2.1,1.87-2.39,1.67-.64,2.23-2.9,4.41-2.79Z"/>
  <path class="cls-15" d="m574.77,350.2c-1.36-1.08-2.02-2.24-1.19-4.03,1.23-2.65,3.55-1.98,5.67-2.03-.92,2.42-2.62,4.3-4.48,6.07Z"/>
  <path class="cls-15" d="m583.66,338.09c-2.64-5.27-1.67-6.85,4.31-7-1.44,2.33-2.87,4.67-4.31,7Z"/>
  <path class="cls-6" d="m1514.12,439.43c-.36-1.7-.72-3.4-1.09-5.1,1.94-1.69,3.65-1.29,4.33.99.72,2.41-.13,4.25-3.24,4.12Z"/>
  <path class="cls-15" d="m596.93,293.83c-2.14-.87-3.18-2.35-2.81-4.65.27-1.67,1.16-2.53,2.98-2.29.36.21.6.51.74.9.1.85.19,1.71.29,2.56.31.32.48.7.54,1.12-.03,1.16-.42,2.08-1.74,2.35Z"/>
  <path class="cls-6" d="m468.87,126.67c-1.81-1.75-3.62-3.51-5.43-5.26,1.76-.09,3.49-1.72,5.28.2,1.61,1.74,1.06,3.35.16,5.06Z"/>
  <path class="cls-15" d="m433.99,484.59q-.06-6.21,7.24-6.12c-.06.24-.11.49-.14.73-.71.85-1.41,1.72-2.69,1.73-1.47,1.22-2.94,2.44-4.41,3.66Z"/>
  <path class="cls-15" d="m365.04,550.39c-1.65-3.9-1.06-5.03,2.76-5.22,1.17-.06,2.34.01,3.52.02-.06.24-.11.49-.14.73-.71.85-1.41,1.72-2.69,1.73-1.15.91-2.3,1.82-3.45,2.73Z"/>
  <path class="cls-15" d="m401.78,61.54q-6.4.05-6.33-6.13c2.15-.22,2.86,1.25,3.5,2.8.94,1.11,1.88,2.22,2.83,3.33Z"/>
  <path class="cls-38" d="m1566.8,506.03c8.07-1.07,16.13-1.5,24.17.24-8.06-.08-16.11-.16-24.17-.24Z"/>
  <path class="cls-6" d="m1659.32,438.56c-.36-1.7-.72-3.4-1.09-5.1,1.98-1.96,3.39-.36,4.02,1.06,1.1,2.45-.77,3.49-2.94,4.04Z"/>
  <path class="cls-6" d="m1705.02,443.77c-.56-1.13.48-1.76.86-2.59.77-.72-.2-2.04.98-2.62,2.97.52,2.9,2.64,2.17,4.58-.78,2.08-2.49,1.49-4.02.63Z"/>
  <path class="cls-6" d="m1342.66,510.5c1.05,2.14,2.03,4.31,3.81,6.02-1.78-.15-4.02.78-5.07-1.3-.87-1.71-.78-3.56,1.26-4.73Z"/>
  <path class="cls-6" d="m1556.85,442.03c-.9,2.02-1.79,4.04-2.69,6.06-1.92-1.05-1.96-2.79-1.41-4.45.63-1.92,2.52-1.56,4.1-1.61Z"/>
  <path class="cls-6" d="m1687.89,427.4c-1.47.84-2.94,1.69-4.41,2.53-2.06-1.99-.27-3.13,1.18-3.95,1.42-.81,2.92-.69,3.23,1.42Z"/>
  <path class="cls-60" d="m1471.91,245.33c-.04-.25-.05-.5-.04-.76,6.27,0,12.53,0,18.8,0-4.26,1.56-8.69.39-13.03.71-1.9.14-3.82.04-5.73.05Z"/>
  <path class="cls-6" d="m1496.94,519.3c1.79,0,3.59,0,5.38,0,.01,1.47-.13,3.06-2.01,3.15-2.03.1-3.03-1.3-3.37-3.14Z"/>
  <path class="cls-60" d="m1418.86,244.48c.13.28.11.56-.04.83-5.91-.47-11.91.9-17.77-.73,5.94-.03,11.87-.07,17.81-.1Z"/>
  <path class="cls-6" d="m1660.21,505.28c-.05-5.23-.09-10.46-.14-15.7,0-.7-.05-1.43.85-1.72-.39,5.8.97,11.67-.71,17.42Z"/>
  <path class="cls-6" d="m583.78,242.69c-.3-.58-.6-1.16-.9-1.73,2.05-1.39,3.71-.78,4.78,1.15.75,1.36.9,2.84-1.34,3.19-.99-.74-.92-2.44-2.54-2.61Z"/>
  <path class="cls-6" d="m398.96,58.2c-1.17-.93-2.34-1.87-3.5-2.8-.03-.25-.08-.49-.14-.73,4.49-.95,4.95-.5,3.64,3.53Z"/>
  <path class="cls-6" d="m508.31,414.19c.88-1.27,1.74-2.57,3.59-2.59.02,1.52.35,3.13-1.63,3.91-1.45.57-1.8-.18-1.95-1.32Z"/>
  <path class="cls-6" d="m598.14,291.23c0-.29-.01-.58-.02-.88,1.91-1.13,3.09-.62,3.39,1.51.34,2.47-.73,3.83-3.43,3.74-.07-.29-.14-.58-.21-.87.72-1.12,1.75-2.22.27-3.5Z"/>
  <path class="cls-6" d="m593.64,318.1c-.5-1.35.06-2.44.9-3.47,1.1.09,2.57-.14,2.36,1.56-.22,1.8-1.77,1.9-3.25,1.9Z"/>
  <path class="cls-50" d="m759.4,194.96c-4.25,0-8.49,0-12.74,0,4.25-1.3,8.49-1.29,12.74,0Z"/>
  <path class="cls-43" d="m746.67,377.77c4.17-1.56,8.47-.45,12.72-.57.22.2.26.35.15.46-.1.09-.2.14-.3.14-4.19-.01-8.37-.02-12.56-.03Z"/>
  <path class="cls-6" d="m1661,451.65c-2.09-.17-.81-1.67-.85-2.42-.14-2.68.02-5.37.07-8.06,1.57,3.4.34,7,.78,10.48Z"/>
  <path class="cls-23" d="m1439.64,426.33c-3.92,0-7.84,0-11.76,0,3.92-1.19,7.84-1.38,11.76,0Z"/>
  <path class="cls-53" d="m1385.71,467.13c0,3.49-.02,6.98-.03,10.46-1.4-3.49-1.19-6.98.03-10.46Z"/>
  <path class="cls-6" d="m78.24,402.12c1.19,1.16,2.38,2.31,3.58,3.47-2.46.07-5.02.22-3.58-3.47Z"/>
  <path class="cls-6" d="m221.57,38.27c-.62.8-1.25,1.6-1.87,2.39-.27.07-.55.14-.82.2-.43-1.02-1.31-2.08.06-3.04.99-.69,1.92-.63,2.63.44Z"/>
  <path class="cls-20" d="m1294.54,439.39c1.65,3.07.37,6.34.66,9.5-.17.41-.39.44-.67.09,0-3.2,0-6.4,0-9.6Z"/>
  <path class="cls-44" d="m748.49,246.03c3.02-1.19,6.05-1.13,9.07,0-3.02,0-6.05,0-9.07,0Z"/>
  <path class="cls-6" d="m583.78,242.69c3.58-1.62,2.19,1.29,2.54,2.61-.01.32-.02.64-.04.96-1.63-.67-1.92-2.22-2.5-3.57Z"/>
  <path class="cls-35" d="m304.94.76c-2.72,0-5.44,0-8.16,0-.26-.19-.33-.34-.21-.46.1-.1.21-.15.33-.15,2.63,0,5.25-.01,7.88-.02.31.07.43.19.38.35-.06.18-.13.27-.22.27Z"/>
  <path class="cls-67" d="m1527.56,346.64c1.39,2.55.5,5.28.69,7.93-1.66-2.53-.65-5.27-.69-7.93Z"/>
  <path class="cls-67" d="m1018.47,346.64c1.39,2.55.5,5.28.69,7.93-1.66-2.53-.65-5.27-.69-7.93Z"/>
  <path class="cls-15" d="m23.4,228.68c.27,2.4-.67,3.76-3.34,3.62.72-1.55,1.93-2.67,3.34-3.62Z"/>
  <path class="cls-62" d="m710.19,290.38c0-2.61-.01-5.22-.02-7.83,1.13,2.61,1.23,5.22.02,7.83Z"/>
  <path class="cls-51" d="m1213.89,281.66c1.24,2.63,1.07,5.25-.02,7.87,0-2.62.01-5.25.02-7.87Z"/>
  <path class="cls-51" d="m1294.54,499.19c1.13,2.62,1.26,5.25,0,7.87,0-2.62,0-5.25,0-7.87Z"/>
  <path class="cls-7" d="m858.98,215.81c1.2,2.62,1.09,5.23-.02,7.84l.02-7.84Z"/>
  <path class="cls-3" d="m1637.74,432.65c-.35-.7-.94-1-1.73-.99.41-1.25,1.18-2.15,2.58-2.41.07.66.23,1.27.95,1.56.18,1.33-.5,1.87-1.8,1.84Z"/>
  <path class="cls-65" d="m1041.6,376.27h7.24c-2.41,1.18-4.83,1.26-7.24,0Z"/>
  <path class="cls-58" d="m1311.45,427.24c-2.42,0-4.83,0-7.25,0,2.42-1.4,4.83-1.21,7.25,0Z"/>
  <path class="cls-42" d="m1358.98,427.21c-2.43,0-4.86,0-7.29,0,2.43-1.18,4.86-1.33,7.29,0Z"/>
  <path class="cls-26" d="m1167.07,376.29c2.42-.01,4.84-.02,7.25-.03-2.41,1.15-4.83,1.31-7.25.03Z"/>
  <path class="cls-65" d="m1550.68,376.27h7.24c-2.41,1.18-4.83,1.26-7.24,0Z"/>
  <path class="cls-14" d="m796.02,256.67c2.41,0,4.82,0,7.22-.01-2.41,1.17-4.81,1.26-7.22.01Z"/>
  <path class="cls-59" d="m.93,284.26c0,2.34,0,4.67,0,7.01-1.23-2.34-1.24-4.67,0-7.01Z"/>
  <path class="cls-49" d="m1373.39,216.63c1.5,2.25.48,4.72.68,7.08-1.6-2.24-.61-4.71-.68-7.08Z"/>
  <path class="cls-26" d="m1676.15,376.29c2.42-.01,4.84-.02,7.25-.03-2.41,1.15-4.83,1.31-7.25.03Z"/>
  <path class="cls-37" d="m1196.76,354.55c0-2.35.02-4.7.03-7.06,1.43,2.36,1.18,4.71-.03,7.06Z"/>
  <path class="cls-37" d="m1705.85,354.55c0-2.35.02-4.7.03-7.06,1.43,2.36,1.18,4.71-.03,7.06Z"/>
  <path class="cls-17" d="m1430.61,520.16c2.4,0,4.8,0,7.19-.01-2.4,1.19-4.79,1.19-7.19.01Z"/>
  <path class="cls-6" d="m438.4,480.93c.5-1.16,1.4-1.73,2.69-1.73-.08,1.76.08,3.88-2.69,1.73Z"/>
  <path class="cls-2" d="m1440.42,375.4c2.46.06,5-.82,7.32.66-2.46.03-4.98.62-7.32-.66Z"/>
  <path class="cls-6" d="m368.49,547.66c.5-1.16,1.4-1.73,2.69-1.73-.08,1.76.08,3.88-2.69,1.73Z"/>
  <path class="cls-66" d="m1504.18,427.2l-6.39.02c2.12-1.24,4.25-1.32,6.39-.02Z"/>
  <path class="cls-8" d="m300.55,577.36c2.05.29,4.26-1.02,6.18.57-2.12.01-4.24.03-6.35.04-.25-.21-.31-.37-.18-.49.1-.09.22-.13.35-.13Z"/>
  <path class="cls-16" d="m824.79,235.86c0-2.08,0-4.16,0-6.25,1.33,2.08,1.45,4.16,0,6.25Z"/>
  <path class="cls-18" d="m1454.78,457.7c2.12,0,4.24.01,6.36.02-2.13,1.29-4.25,1.19-6.36-.02Z"/>
  <path class="cls-27" d="m1412.49,475.91c-1.23-2.08-1.07-4.15.1-6.2-.03,2.07-.07,4.13-.1,6.2Z"/>
  <path class="cls-2" d="m994.24,226.28c0-2.05-.01-4.11-.02-6.16,1.14,2.05,1.45,4.11.02,6.16Z"/>
  <path class="cls-7" d="m1515.82,222.86c0-2.08,0-4.16,0-6.24,1.35,2.08,1.44,4.16,0,6.24Z"/>
  <path class="cls-6" d="m269.08,5.34c-.91.5-1.82.99-2.73,1.49.07-1.94.42-3.39,2.73-1.49Z"/>
  <path class="cls-4" d="m1471.02,503.62c0-2.06,0-4.13.01-6.19,1.37,2.07,1.3,4.13-.01,6.19Z"/>
  <path class="cls-7" d="m824.79,341.59c0-2.08,0-4.16,0-6.24,1.35,2.08,1.44,4.16,0,6.24Z"/>
  <path class="cls-64" d="m1697.77,427.23c-2.14,0-4.27-.02-6.41-.03,2.14-1.18,4.28-1.3,6.41.03Z"/>
  <path class="cls-25" d="m1602.67,519.2c2.13.02,4.26.05,6.39.07-2.14,1.32-4.27,1.08-6.39-.07Z"/>
  <path class="cls-8" d="m1356.29,289.58c0-2.08.01-4.17.02-6.25,1.39,2.09,1.23,4.17-.02,6.25Z"/>
  <path class="cls-54" d="m1649.38,427.2c-2.13,0-4.26.02-6.39.03,2.13-1.17,4.26-1.35,6.39-.03Z"/>
  <path class="cls-73" d="m1576.77,427.21c-2.12.01-4.25.02-6.37.04,2.12-1.16,4.24-1.4,6.37-.04Z"/>
  <path class="cls-54" d="m1264.88,427.2c-2.13.02-4.25.04-6.38.06,2.12-1.09,4.24-1.47,6.38-.06Z"/>
  <path class="cls-32" d="m597.83,287.79c-.25-.3-.49-.6-.74-.9.01-1.76.02-3.52.03-5.28,1.49,1.93.76,4.09.7,6.18Z"/>
  <path class="cls-61" d="m996.03,354.55c0-1.77.01-3.54.02-5.31,1.32,1.77,1.15,3.55-.02,5.31Z"/>
  <path class="cls-9" d="m1706.86,438.56c-.21.91-.13,1.93-.98,2.62,0-1.75,0-3.49,0-5.24.93.66.75,1.72.98,2.62Z"/>
  <path class="cls-1" d="m1705.88,509.68c0-1.77,0-3.54,0-5.31,1.24,1.77,1.31,3.54,0,5.31Z"/>
  <path class="cls-57" d="m801.53,315.44c-1.86,0-3.72,0-5.58,0,1.86-1.21,3.72-1.3,5.58,0Z"/>
  <path class="cls-34" d="m1538.98,519.91c1.68-1.44,3.68-.48,5.53-.67-1.68,1.46-3.66.63-5.53.67Z"/>
  <path class="cls-21" d="m755.73,326.06c-1.8,1.11-3.6,1.12-5.39,0h5.39Z"/>
  <path class="cls-48" d="m1471.04,448.17c0-1.78,0-3.56,0-5.35,1.25,1.78,1.4,3.56,0,5.35Z"/>
  <path class="cls-36" d="m296.9.17c-.04.2-.08.4-.12.6-1.79,0-3.58.02-5.36.03,1.71-1.16,3.62-.71,5.48-.63Z"/>
  <path class="cls-6" d="m217.09,538.12c.92.89,1.83,1.78,2.75,2.66-2.09.25-3.01-.65-2.75-2.66Z"/>
  <path class="cls-45" d="m1436.06,493.89c-1.84,0-3.67,0-5.51-.01,1.84-1.24,3.67-1.04,5.51.01Z"/>
  <path class="cls-8" d="m289.6,577.94c1.61-1.53,3.54-.39,5.3-.59.33.07.46.18.4.34-.07.19-.15.28-.24.28-1.82-.01-3.64-.02-5.47-.03Z"/>
  <path class="cls-10" d="m295.07,577.97c-.05-.21-.11-.42-.16-.62,1.88,0,3.76,0,5.64,0-.06.21-.11.41-.17.62-1.77,0-3.54,0-5.31,0Z"/>
  <path class="cls-63" d="m1528.24,503.54c-.01,1.75-.02,3.5-.04,5.24-1.3-1.76-1.18-3.5.04-5.24Z"/>
  <path class="cls-77" d="m1294.53,448.99c.23-.02.45-.05.67-.09-.03,1.49.56,3.07-.67,4.4,0-1.43,0-2.87,0-4.3Z"/>
  <path class="cls-6" d="m853.24,349.31v4.31c-1.08-1.44-1.08-2.87,0-4.31Z"/>
  <path class="cls-52" d="m304.94.76c-.04-.21-.1-.42-.16-.62,1.58-.09,3.2-.5,4.6.64-1.48,0-2.96-.01-4.44-.02Z"/>
  <path class="cls-24" d="m759.22,377.8c.07-.2.12-.4.16-.6,1.48-.02,2.96-.04,4.43-.06-1.4,1.08-3,.81-4.59.66Z"/>
  <path class="cls-50" d="m597.15,299.99c-.02-1.53-.51-3.13.71-4.47,0,1.53.69,3.15-.71,4.47Z"/>
  <path class="cls-28" d="m138.15,170.68c8.2-8.04,16.4-16.07,24.59-24.11,1.13-1.11,2.18-2.3,3.27-3.45.46-1.22,1.17-2.16,2.66-2.23,2.65.63,3.48-.88,3.78-3.01.2-.34.47-.63.8-.87,9.49-8.7,18.76-17.62,27.72-26.82.46-1.2,1.15-2.15,2.63-2.23,2.53.49,3.4-.99,3.81-3.02.2-.34.48-.63.8-.86,9.49-8.7,18.75-17.61,27.72-26.82,1.37-3.2,4.21-4.76,7.24-6.12,4.68-4.42,9.53-8.69,13.98-13.31,4.87-5.05,10.68-8.9,16.34-12.95,1.73-2.55,4.64-2.59,7.28-3.21,4.16-.91,8.31-1.83,12.47-2.74,3.3-.48,6.6-.5,9.9,0,3.22.92,6.51,1.52,9.87,1.63,2.8-.16,5.29.45,7.14,2.67,5.95,1.94,11.07,5.28,15.44,9.5,67.61,65.28,135.18,130.6,202.68,195.98,6.1,5.91,12.83,11.4,16.41,19.34.58,1.29,1.47,2.5,1.23,4.02.58,1.75-.83,4.15,1.82,5.23,1.13,2.48,1.63,5.09,1.77,7.78.62,3.52.63,7.04,0,10.55-.12,4.17-1.82,8.02-2.59,12.06.36,2.54-1.2,4.29-2.69,6.06-1,1.44-1.99,2.89-2.99,4.33-.94.78-2.41.73-3.09,1.9-.36.78-.37,1.6-.37,2.43-7.31,8.11-15.63,15.27-23.33,23.01-1.22,1.23-2.39,2.51-3.59,3.77-.54.86-1.36,1.29-2.37,1.44-.89.1-1.82.13-1.98,1.29-8.52,8.34-17.04,16.67-25.55,25.02-1.13,1.11-2.18,2.3-3.26,3.45-1.92,1.93-3.43,4.32-6.29,5.18-9.85,8.97-19.56,18.07-28.67,27.75-2.56,2.45-4.5,5.58-8.09,6.91-9.6,8.64-18.89,17.57-27.77,26.9-1.85,1.99-3.46,4.26-6.27,5.17-9.87,8.95-19.53,18.11-28.68,27.76-1.92,1.93-3.43,4.32-6.29,5.18-9.89,8.93-19.49,18.14-28.67,27.75-1.93,1.91-3.41,4.34-6.29,5.18-5.68,4.5-10.08,10.42-16.62,13.96-1.38.75-2.68,1.62-4.01,2.44-1.72,1.66-3.59,2.92-6.21,2.05-.6.29-1.2.57-1.79.86-2.08,1.78-4.47,2.34-7.17,1.74-1.19-.01-2.37-.02-3.56-.03-3.29.87-6.72-.29-10,.66-4.91-1.2-9.93-2.06-14.69-3.67-7.33-2.47-13.46-6.97-18.91-12.23-51.02-49.27-102.21-98.37-152.9-147.96-18.87-18.46-37.93-36.74-56.7-55.3-1.11-1.1-2.07-2.33-3.09-3.5-2.8-1.53-3.96-4.07-4.53-6.96-.28-2.82-2.97-4.8-2.91-7.74-1.99-1.64-3.02-3.55-1.75-6.07.01-1.14.03-2.29.04-3.43-.87-3.61.35-7.4-1.08-10.96-.13-1.39.11-2.69,1.03-3.81,1.25-5.11,3.62-9.82,5.59-14.68,0-.2,0-.39,0-.59.2-1.23.89-2.18,1.81-3,.3-.26.61-.51.92-.75,5.37-5.49,10.73-10.98,16.1-16.47.27-1.41,1.24-2.02,2.62-2.18,2.54.49,3.37-1.01,3.79-3.02.21-.34.47-.62.8-.86,9.49-8.7,18.75-17.61,27.72-26.82,1.32-3.24,4.26-4.7,7.24-6.12,9.49-8.7,18.75-17.61,27.71-26.82.83-1.41,1.48-3,3.53-3.12,2.74.63,3.31-1.65,4.47-3.12Z"/>
  <path class="cls-15" d="m444.66,420.25c2.57-2.44,4.4-5.69,8.09-6.91.01.72-.1,1.46.05,2.16,1.2,5.66-3.57,7.03-8.14,4.75Z"/>
  <path class="cls-15" d="m410.61,452.31c1.9-1.94,3.28-4.47,6.27-5.17,1.2,2.34,1.83,4.86-.94,6.35-1.7.92-4.24,2.02-5.33-1.18Z"/>
  <path class="cls-15" d="m375.65,485.25c1.9-1.95,3.29-4.48,6.29-5.18.69,2.37,1.66,4.81-1.42,6.37-1.96,1-3.72,1.03-4.87-1.19Z"/>
  <path class="cls-15" d="m67.48,236.67c-.06.24-.11.49-.14.74-1.3,1.39-2.36,3.07-4.49,3.46-.86.62-1.72,1.24-2.57,1.86-1.56-1.89-1.61-4.17-.17-5.76,2.07-2.29,4.87-.85,7.37-.29Z"/>
  <path class="cls-15" d="m280.75,41.66c-2.04,1.89-4.89,2.05-7.28,3.21-1.16-1.97-1.34-3.65,1.05-5.04,2.89-1.69,4.63-.3,6.23,1.83Z"/>
  <path class="cls-15" d="m203.57,108.27c-.87.64-1.74,1.28-2.61,1.91-1.01-2-1.66-4.01.22-5.89,2.25-2.24,4.66-.57,7.02-.22-.06.24-.11.49-.14.74-1.3,1.39-2.36,3.07-4.49,3.46Z"/>
  <path class="cls-15" d="m168.61,141.2l-2.6,1.92c-1.01-2-1.67-4.01.22-5.89,2.25-2.25,4.66-.57,7.02-.22-.06.24-.11.49-.14.74-1.3,1.39-2.36,3.07-4.49,3.46Z"/>
  <path class="cls-15" d="m340.7,518.19c1.9-1.95,3.3-4.47,6.29-5.18,0,1.4.19,2.83-.03,4.2-.42,2.7-3.07,3.09-6.26.98Z"/>
  <path class="cls-15" d="m243.15,71.14c-1.77,2.75-5.09,3.78-7.24,6.12-1.35-6.41,1.52-8.15,7.24-6.12Z"/>
  <path class="cls-15" d="m481.41,385.59c1.9-1.95,3.3-4.47,6.29-5.18,0,1.4.18,2.83-.03,4.2-.42,2.7-3.07,3.09-6.26.98Z"/>
  <path class="cls-15" d="m102.43,203.74c-1.77,2.75-5.09,3.78-7.24,6.12-1.57-5.89-1.17-6.23,7.24-6.12Z"/>
  <path class="cls-15" d="m320.13,43.23c-2.29-1.1-5.02-1.12-7.14-2.67,1.28-2.06,3.19-3.01,5.52-2.14,2.33.87,1.43,3.08,1.61,4.8Z"/>
  <path class="cls-15" d="m304.89,539.24c2.18-1.37,4.76-1.25,7.17-1.74-.55,2.05-.75,4.47-3.73,4.52-1.81.03-3.69-.25-3.44-2.78Z"/>
  <path class="cls-15" d="m40.51,310.24c1.51,2.32,3.02,4.64,4.53,6.96-6.62.04-7.42-1.19-4.53-6.96Z"/>
  <path class="cls-15" d="m313.85,536.64c2.2-.31,3.86-2.16,6.21-2.05,0,2,.84,4.48-2.48,4.77-1.95.17-3.9-.01-3.73-2.72Z"/>
  <path class="cls-15" d="m133.66,174.14c-1.17.93-2.34,1.86-3.51,2.78q-.07-6.2,6.35-6.11c.17,2-1.08,2.87-2.84,3.33Z"/>
  <path class="cls-15" d="m554.21,313.76c.05-2.37,1.71-4.08,2.69-6.06,1.97.44,2.71,1.93,2.28,3.53-.63,2.33-2.75,2.7-4.97,2.54Z"/>
  <path class="cls-15" d="m35.86,296.43c.58,2.02,1.16,4.05,1.75,6.07-1.98-.01-4.35.52-4.56-2.43-.14-1.89,0-3.79,2.82-3.64Z"/>
  <path class="cls-15" d="m35.86,278.23c.02,1.15.04,2.29.06,3.44-.76.73.09,1.97-.9,2.63-2.83.18-2.99-1.71-2.88-3.63.13-2.28,1.76-2.65,3.72-2.44Z"/>
  <path class="cls-28" d="m133.66,174.14c.95-1.11,1.9-2.22,2.84-3.33.55-.04,1.1-.09,1.65-.13-.04,2.92.03,5.97-4.49,3.46Z"/>
  <path class="cls-15" d="m518.25,350.26c.87-.35,1.74-.7,2.61-1.05.42,1.02,1.34,2.12-.09,3.02-1.22.77-2.48.88-3.49-.43-.29-.87.16-1.31.97-1.53Z"/>
  <path class="cls-40" d="m35.02,284.3c.2-.91.04-1.93.9-2.63,0,3.78-.01,7.56-.02,11.33-1.6-2.78-.47-5.81-.88-8.7Z"/>
  <path class="cls-6" d="m598.14,291.23c1.09.11,2.17.47,2.2,1.65.03,1.47-1.25,1.72-2.47,1.85-.31-.3-.63-.6-.94-.9.4-.87.81-1.73,1.21-2.6Z"/>
  <path class="cls-55" d="m559.49,295.64c0-3.52,0-7.04,0-10.55,1.36,3.52,1.4,7.04,0,10.55Z"/>
  <path class="cls-46" d="m303.12,38.93c-3.3,0-6.6,0-9.9,0,3.3-1.17,6.6-1.27,9.9,0Z"/>
  <path class="cls-71" d="m291.33,539.87c3.24-1.59,6.67-.44,10-.66-3.24,1.58-6.67.47-10,.66Z"/>
  <path class="cls-28" d="m547.77,322.42c-1.05-.63-.85-1.65-.88-2.59.96-1.37,2.17-1.72,3.68-.84-.93,1.14-1.87,2.29-2.8,3.43Z"/>
  <path class="cls-15" d="m44.18,259.2c-.11.28-.23.55-.34.83-1.56.7-1.96,2.13-2.41,3.54h.02c-1.1-.6-1.99-1.23-1.37-2.7.81-1.95,2.48-1.71,4.1-1.66Z"/>
  <path class="cls-28" d="m557.71,277.3c-5.05-.3-2.24-3.15-1.82-5.23.98.3.82,1.1.87,1.82,0,1.23-.17,2.51.97,3.44l-.02-.03Z"/>
  <path class="cls-28" d="m518.25,350.26c-.32.51-.65,1.02-.97,1.53-.25.06-.51.11-.77.15-1.04-.65-.91-1.4-.08-2.07.7-.57,1.36-.37,1.82.39Z"/>
  <path class="cls-28" d="m557.74,277.33c-1.6-.81-2.68-1.76-.97-3.44,1.41.86.63,2.3.97,3.44Z"/>
  <path class="cls-28" d="m550.56,318.99c-1.34-.17-2.53.23-3.68.84.52-2.73,2.79-1.38,4.33-1.73.15.55-.17.78-.65.9Z"/>
  <path class="cls-6" d="m1605.27,299.85c3.32-7.09,6.68-14.16,9.92-21.28.34-.75.53-1.12,1.39-1.22,1.55-.19,1.58,1.12,1.96,1.87,3.12,6.24,6.14,12.53,9.21,18.8.31.63.69,1.23,1.03,1.84.07,1.26-.86,1.31-1.76,1.31-6.66.02-13.32.02-19.98,0-.92,0-1.83-.08-1.77-1.32Z"/>
  <path class="cls-74" d="m1605.51,204.57c3.46.03,4.59,1.79,2.69,4.54-2.58,3.73-5.75,7.06-7.9,11.11-.91,1.71-2.78,2.28-4.57,1.35-1.68-.87-2.75-2.56-1.82-4.34,2.24-4.27,4.73-8.41,8.31-11.83,1.02-.98,2.14-.76,3.28-.82Z"/>
  <path class="cls-74" d="m1542.06,332.03c3.33-.83,4.02,1.21,3.19,3.54-1.5,4.23-3.31,8.39-5.39,12.38-1,1.94-3.44,1.88-5.12.91-1.36-.78-2.35-1.93-1.45-4.27,1.47-3.81,4.06-7.11,4.98-11.15.4-1.75,2.19-1.63,3.78-1.42Z"/>
  <path class="cls-5" d="m1605.27,299.85c1.34,1.73,3.29.95,4.89.86,6.21-.36,12.51,1.17,18.63-.84,1.2,1.49.03,1.73-1.09,1.74-7.1.04-14.21.04-21.31,0-1.13,0-2.27-.26-1.12-1.75Z"/>
  <path class="cls-6" d="m1096.19,299.85c3.32-7.09,6.68-14.16,9.92-21.28.34-.75.53-1.12,1.39-1.22,1.55-.19,1.58,1.12,1.96,1.87,3.12,6.24,6.14,12.53,9.21,18.8.31.63.69,1.23,1.03,1.84.07,1.26-.86,1.31-1.76,1.31-6.66.02-13.32.02-19.98,0-.92,0-1.83-.08-1.77-1.32Z"/>
  <path class="cls-6" d="m1099.94,206.95c.03.89-.31,1.58-.87,2.33-2.61,3.54-5.69,6.74-7.69,10.73-.9,1.81-2.87,2.63-4.89,1.46-1.64-.96-2.57-2.64-1.61-4.42,2.22-4.12,4.65-8.12,8.06-11.5,1.64-1.62,3.61-.99,5.43-.86.95.07,1.73,1.05,1.57,2.25Z"/>
  <path class="cls-74" d="m1036.81,334.58c-2.11,4.58-4.05,9.25-6.42,13.7-.95,1.79-3.3,1.4-4.78.53-1.21-.71-2.37-1.76-1.58-3.9,1.46-3.96,3.99-7.42,5.22-11.51.75-2.52,3.58-1.23,5.51-1.42,1.97-.19,1.49,1.29,2.05,2.59Z"/>
  <path class="cls-5" d="m1096.19,299.85c1.34,1.73,3.29.95,4.89.86,6.21-.36,12.51,1.17,18.63-.84,1.2,1.49.03,1.73-1.09,1.74-7.1.04-14.21.04-21.31,0-1.13,0-2.27-.26-1.12-1.75Z"/>
  <path class="cls-6" d="m665.18,269.81c-.29-5.22,1.82-9.99,3.89-14.51,5.64-12.34,12.48-24.09,23.24-33.05,3.16-2.63,5.91-5.89,10.05-7.42,2.35-.87,4.89-1.72,6.36.46,1.66,2.45-.14,4.8-2.37,6.11-13.42,7.88-21.68,19.87-28.42,33.06-2.75,5.39-4.39,11.18-5.55,17.07-.31,1.59-.98,2.83-2.58,3.58-3.5,1.65-4.66.34-4.64-5.3Z"/>
  <path class="cls-74" d="m863.16,215.79c.81-4.69,3.96-7.87,7.36-10.96,2.35-2.14,4.57-1.03,6.26.39,2.25,1.9.11,3.73-1.19,5.01-2.7,2.65-4.91,5.5-6.39,8.97-1.34,3.14-3.73,2.26-6.03,1.02-.53-1.47-.51-2.95-.02-4.42Z"/>
  <path class="cls-12" d="m863.16,215.79c0,1.47.01,2.95.02,4.42-1.28-1.47-1.22-2.94-.02-4.42Z"/>
  <path class="cls-6" d="m1378.56,214.9c.82-3.4,2.85-6.18,5.16-8.72,1.68-1.84,3.71-3.17,6.55-2.04,3.15,1.25,3.5,2.44,1.23,4.92-2.41,2.63-5.05,5.24-6.1,8.6-1.11,3.58-3.95,3.38-6.65,3.87-.08-.42-.16-.84-.24-1.26-.48-1.79-.54-3.58.04-5.36Z"/>
  <path class="cls-41" d="m1378.56,214.9c-.01,1.79-.03,3.57-.04,5.36-1.34-1.8-1.15-3.58.04-5.36Z"/>
  <path class="cls-74" d="m1218.15,283.29c.68-5.67,3.93-10.01,8.39-13.34,1.5-1.12,4.3-1.1,6.01.93,1.75,2.07-.07,3.54-1.27,4.66-2.9,2.7-5.09,5.81-6.58,9.36-.89,2.13-2.55,2.19-4.32,1.99-2.18-.25-2.35-1.85-2.23-3.6Z"/>
  <path class="cls-74" d="m1304.38,431.95c-1.12,3.13-3.39,5.01-4.97,7.33-.41.6-1.14,1.43-2.2.68-.78-.56-1.13-1.27-1.02-2.23.35-3.05,4.54-6.14,8.2-5.78Z"/>
  <path class="cls-76" d="m1251.36,437.72c.2-1.51.86-2.85,1.92-4.07,1.29-1.49,3.04-3.08,4.76-1.71,1.74,1.39-.59,2.54-1.4,3.73-.71,1.03-1.16,2.23-1.85,3.28-.56.86-1.36,1.55-2.55,1.27-1.54-.36-.66-1.59-.88-2.51Z"/>
  <path class="cls-6" d="m1568.6,479.23c1.22-2.66,2.34-5.36,3.67-7.96,1.03-2.01,2.18-2.16,3.1.17,1.18,2.98,3.41,5.5,4.04,8.71-3.64.09-7.44,1.91-10.82-.92Z"/>
  <path class="cls-47" d="m1569.6,431.98c-.72,2.68-2.66,4.59-4.24,6.7-.63.85-1.56.93-2.37.66-1.16-.38-.68-1.47-.56-2.21.53-3.26,3.54-5.44,7.17-5.15Z"/>
  <path class="cls-74" d="m1537.32,498.55c-1.16,2.05-2.3,4.28-3.68,6.35-.43.64-1.87.81-2.3.05-1.37-2.39,1.21-4.08,1.46-6.23.15-1.31.87-2.07,2.26-2.09,1.18-.02,1.84.63,2.26,1.91Z"/>
  <path class="cls-29" d="m1568.6,479.23c3.45,1.97,7.23.46,10.82.92-3.71,1.63-7.52.98-11.29.35-.49-.08-.06-.95.47-1.27Z"/>
  <path class="cls-47" d="m1637.74,432.65l1.8-1.84c1.89-.09,3.18,1.03,2.51,2.55-1,2.27-2.72,4.25-4.22,6.29-.27.36-1.18.7-1.5.53-.73-.4-1.35-1-1.39-2.03-.08-2.35,1.45-3.86,2.8-5.49Z"/>
  <path class="cls-68" d="m1688.77,431.97c-.13,1.89-5.79,6.66-7.45,6.34-.99-.19-2.17-1.02-1.22-2.08,1.74-1.93,3.68-3.76,5.81-5.28.74-.53,2.76-.96,2.86,1.02Z"/>
  <path class="cls-74" d="m1412.92,438.18c-1.46.94-2.58,1.64-3.68,2.37-8.8,5.78-13.66,14.09-16.11,23.84-.54,2.13-1.41,3.3-3.51,2.69-1.94-.56-1.03-2.11-.68-3.46,2.7-10.53,8.67-19.04,17.16-25.98,1.21-.99,2.53-2.08,4.3-1.49.61.21,1.07.84,2.52,2.03Z"/>
  <path class="cls-47" d="m1346.24,439.43c-1.25.19-1.93-.4-1.64-1.68.62-2.76,1.42-5.35,4.54-6.64,1.44-.6,2.04.2,2.48.96.65,1.12-3.92,7.34-5.37,7.36Z"/>
  <path class="cls-76" d="m1494.94,430.84c1.34-.18,2.06.32,2.59,1.04.55.74.03,1.41-.51,1.84-1.61,1.3-2.83,2.84-3.52,4.76-.58,1.63-2.03.98-3,.85-1.19-.16-.92-1.5-.67-2.13,1.06-2.69,2.15-5.46,5.11-6.37Z"/>
  <path class="cls-15" d="m336.26,335.28c13.75,12.94,27.26,26.11,40.56,39.49,10.11,10.17,20.22,20.39,31.28,29.64,1.9,1.59,2.8,4.01,5.2,5.18,1.52.74.72,1.78-.17,2.77-5.75,6.37-11.51,12.74-17.13,19.22-1.81,2.09-3.07,2.18-4.79-.05-1.04-1.35-2.56-2.37-3.86-3.53-1.16-1.72-1.33-4.48-4.53-4.08-8.35-7.89-16.7-15.77-25.05-23.66-1.18-1.7-1.43-4.36-4.53-4.08-6.68-6.3-13.5-12.47-19.99-18.94-2.68-2.68-5.86-4.7-8.61-7.25-1.62-.16-2.18-1.35-2.69-2.59-7.55-7.13-15.11-14.24-22.64-21.39-1.45-1.38-2.55-1.4-4.12.01-6.18,5.58-12.41,11.09-18.41,16.86-7.02,6.75-14.62,12.95-21.97,19.38-2.34.66-3.84,2.14-4.57,4.38-10.73,9.81-21.46,19.62-32.19,29.43-2.97.04-3.99,1.99-4.56,4.37-2.28,3.23-5.98,5-8.66,7.83-1.09,1.16-2.31,1.13-3.47.02-7.02-6.67-13.6-13.73-20.02-20.93,4.04-1.32,8.37-2.36,7.88-7.89.67-.76,1.3-1.56,2.03-2.27,28.15-27.49,56.27-54.99,84.51-82.39,2.07-2.01,2.14-3.38.81-5.77-3.09-5.57-5.92-11.3-6.48-17.77.47-3.2.49-6.41-.01-9.61,1.34-5.92,3.02-11.72,6.83-16.69,1.71-2.24-.19-3.31-1.47-4.54-13.95-13.47-27.9-26.93-41.89-40.37-6.03-5.79-12.13-11.51-18.19-17.26-2.88-1.3-4.99-3.35-6.34-6.12-7.86-8.06-15.88-15.95-24.32-23.44-1.49-1.32-3.48-2.38-.8-4.58,7.07-5.83,14.17-11.64,20.9-17.82,2.81-2.58,4.22-1.29,6.16.6,13.44,13.06,26.91,26.1,40.4,39.12,2.84,2.74,5.78,5.38,8.68,8.06.64,0,1.16.27,1.64.64,1.02.9,2.06,1.8,3.03,2.75.24.3.47.62.69.93,9.74,9.66,19.21,19.59,29.57,28.65.72-.16,1.22-.68,1.8-1.07,1.02-.85,1.9-1.83,2.93-2.68.48-.38,1.01-.63,1.64-.63,18.82-17.91,37.64-35.82,56.46-53.74.8-1.34,1.42-2.82,2.95-3.6.52-.28,1.1-.46,1.6-.79,6.7-6.35,13.48-12.62,20.06-19.08,1.79-1.75,2.76-1.81,4.55-.03,6.96,6.93,14.02,13.77,21.19,20.5,1.8,1.69,1.47,2.59-.11,4.1-5.49,5.27-10.85,10.68-16.26,16.03-1.26,2.76-3.49,4.63-6.08,6.17-12.58,12.23-25.19,24.44-37.75,36.69-7.53,7.35-15,14.75-22.5,22.13-1.06,1.86-2.01,3.83-4.47,4.34-1.95.93-1.81,1.89-.62,3.62,4.64,6.8,6.88,14.45,7.94,22.47.49,2.03.51,4.05-.01,6.08-1.4,4.28-1.48,8.9-3.54,13.01.94,2.63-1.06,3.81-2.71,5.18-.63.78-1.25,1.56-1.88,2.34-1.13,1.41-3.48,3.25-3.15,4.15.68,1.83,2.78,3.2,4.35,4.69,2.83,2.68,5.71,5.32,8.57,7.98,3.12.91,4.61,3.48,6.32,5.82Z"/>
  <path class="cls-15" d="m189.23,399.47c1.98,5.62-.26,7.86-7.88,7.89,2.08-3.14,5.05-5.45,7.88-7.89Z"/>
  <path class="cls-28" d="m336.26,335.28c-2.62-1.42-4.43-3.66-6.32-5.82,4.9-1.93,6.28-.65,6.32,5.82Z"/>
  <path class="cls-28" d="m385.71,196.77c1.53-2.52,3.82-4.33,6.08-6.17q.07,6.14-6.08,6.17Z"/>
  <path class="cls-28" d="m209.02,196.67c2.11,2.04,4.23,4.08,6.34,6.12-5.83-.02-6.31-.49-6.34-6.12Z"/>
  <path class="cls-28" d="m320.99,259.94l4.47-4.34c-.02,1.39.04,2.8-.1,4.18-.11,1.08-.9,1.72-2.01,1.89-1.38.21-2.23-.31-2.36-1.73Z"/>
  <path class="cls-15" d="m382.82,423.93c4.32-1.7,4.48-1.56,4.53,4.08-2.01-.84-3.2-2.53-4.53-4.08Z"/>
  <path class="cls-28" d="m265.41,202.93c-.29-.06-.58-.14-.85-.24-1.04-1.26-1.2-3.44-3.63-3.22-.3-.29-.59-.57-.89-.86.64-2.76,2.48-1.96,4.04-1.11,2.34,1.28,2.7,3.2,1.33,5.43Z"/>
  <path class="cls-15" d="m353.24,396.19c3.99-1.44,4.37-1.09,4.53,4.08-2-.84-3.21-2.52-4.53-4.08Z"/>
  <path class="cls-28" d="m168.61,141.2c1.24-1.46,2.23-3.24,4.49-3.46-.07,4.95-.32,5.14-4.49,3.46Z"/>
  <path class="cls-15" d="m213.5,420.45c-.64-4.73.32-5.66,4.56-4.37-1.52,1.46-3.04,2.91-4.56,4.37Z"/>
  <path class="cls-28" d="m62.85,240.87c1.24-1.46,2.23-3.24,4.49-3.46-.04,2.92.03,5.98-4.49,3.46Z"/>
  <path class="cls-28" d="m322.05,310.3c.9-1.73,1.8-3.45,2.71-5.18,1.52.82,1.98,2.1,1.42,3.6-.73,1.91-2.55,1.53-4.12,1.58Z"/>
  <path class="cls-28" d="m203.57,108.27c1.24-1.46,2.23-3.24,4.49-3.46-.04,2.92.03,5.98-4.49,3.46Z"/>
  <path class="cls-28" d="m301.35,227.19c-.28.27-.56.54-.84.81-1.77.64-2.99,1.81-3.65,3.53-.6,1.06-1.22,1.08-1.88.05,1.13-2.8,1.39-6.79,6.36-4.38Z"/>
  <path class="cls-15" d="m250.25,386.65c-.65-3.57.9-5.01,4.57-4.38-1.52,1.46-3.04,2.92-4.57,4.38Z"/>
  <path class="cls-22" d="m270.09,281.66c1.24,3.2,1.13,6.41.01,9.61,0-3.2,0-6.41-.01-9.61Z"/>
  <path class="cls-28" d="m321.96,367.41c.9.86,1.79,1.73,2.69,2.59-2.5.78-3.11.19-2.69-2.59Z"/>
  <path class="cls-28" d="m361.46,169.93c-1.22,1.17-2.44,2.35-3.66,3.52-.01-.9-.02-1.79-.04-2.69.97-1.37,2.18-1.72,3.69-.83Z"/>
  <path class="cls-11" d="m328.3,292.1c0-2.03,0-4.05.01-6.08,1.2,2.03,1.26,4.06-.01,6.08Z"/>
  <path class="cls-15" d="m41.43,263.56c-.03-1.71-.49-3.69,2.41-3.54-.8,1.18-1.61,2.36-2.41,3.54Z"/>
  <path class="cls-28" d="m361.46,169.93c-1.34-.18-2.54.22-3.69.83.63-2.82,2.97-1.36,4.58-1.7-.3.29-.6.58-.89.86Z"/>
  <path class="cls-28" d="m260.93,199.46c4.34-2.23,3.3,1.22,3.63,3.22-1.69-.57-2.64-1.92-3.63-3.22Z"/>
  <path class="cls-28" d="m296.86,231.53c-.25-2.6.97-3.77,3.65-3.53-1.22,1.18-2.43,2.35-3.65,3.53Z"/>
</svg>