<svg width="45" height="52" viewBox="0 0 45 52" fill="none" xmlns="http://www.w3.org/2000/svg">
<path d="M33.3334 19.375C33.3334 33.8104 11.6667 33.8104 11.6667 19.375H17.0834C17.0834 26.6062 27.9167 26.6062 27.9167 19.375M44.1667 43.75V51.875H0.833374V43.75C0.833374 36.5187 15.2688 32.9167 22.5 32.9167C29.7313 32.9167 44.1667 36.5187 44.1667 43.75ZM39.0209 43.75C39.0209 42.0167 30.5438 38.0625 22.5 38.0625C14.4563 38.0625 5.97921 42.0167 5.97921 43.75V46.7292H39.0209M23.8542 0.416656C24.6125 0.416656 25.2084 1.01249 25.2084 1.77082V9.89582H27.9167V3.12499C29.8334 4.01203 31.4393 5.45468 32.5259 7.26572C33.6125 9.07676 34.1298 11.1726 34.0105 13.2812C34.0105 13.2812 35.9063 13.6604 36.0417 16.6667H8.95837C8.95837 13.6604 10.9896 13.2812 10.9896 13.2812C10.8703 11.1726 11.3875 9.07676 12.4742 7.26572C13.5608 5.45468 15.1667 4.01203 17.0834 3.12499V9.89582H19.7917V1.77082C19.7917 1.01249 20.3875 0.416656 21.1459 0.416656" fill="#262626"/>
</svg>
