<?xml version="1.0" encoding="UTF-8"?>
<svg id="Layer_2" data-name="Layer 2" xmlns="http://www.w3.org/2000/svg" xmlns:xlink="http://www.w3.org/1999/xlink" viewBox="0 0 1902.88 666.26">
  <defs>
    <style>
      .cls-1 {
        fill: #fff;
      }

      .cls-2 {
        fill: #a3cf44;
      }
    </style>
    <symbol id="LOH" viewBox="0 0 666.56 666.26">
      <g>
        <path class="cls-2" d="m330.55,634.48c-16.23-.08-30.79-5.94-42.69-17.81-81.26-81.1-162.49-162.23-243.63-243.45-23.06-23.09-23.72-60.39-.61-83.43,37.67-37.58,76.06-74.44,114.16-111.59,43.73-42.63,87.57-85.14,131.18-127.89,26.93-26.4,64.09-26.52,90.8.17,76.77,76.71,153.54,153.42,230.28,230.16,5.67,5.67,11.74,11.09,16.48,17.48,18.81,25.29,16.11,57.31-6.83,79.71-81.51,79.61-163.16,159.07-244.77,238.58-12.16,11.85-26.7,18-44.38,18.08Z"/>
        <path d="m336.16,0c27.83.44,52.82,10.47,73.11,30.96,75.52,76.24,150.98,152.55,226.19,229.09,32.98,33.56,40.12,80.25,19.57,122.27-5.4,11.04-13.01,20.48-21.73,29.09-75.19,74.21-150.36,148.46-225.57,222.66-26.65,26.29-58.49,36.78-95.47,30.35-21.63-3.76-40.14-13.96-55.56-29.56-75.19-76.11-150.41-152.17-225.44-228.44C-1.68,372.93-9.08,325.9,11.4,284.18c5.42-11.04,12.94-20.52,21.66-29.13C108.25,180.84,183.47,106.65,258.59,32.36,279.86,11.33,305.15.16,336.16,0Zm-6.68,621.31c16.88-.08,30.76-5.95,42.38-17.27,77.94-75.93,155.93-151.82,233.77-227.85,21.9-21.39,24.48-51.98,6.52-76.13-4.53-6.1-10.33-11.28-15.74-16.69-73.29-73.29-146.61-146.56-219.93-219.82-25.51-25.49-61.01-25.37-86.72-.16-41.65,40.83-83.52,81.43-125.28,122.15-36.39,35.48-73.05,70.68-109.03,106.58-22.06,22.01-21.44,57.63.59,79.68,77.49,77.57,155.07,155.05,232.68,232.51,11.36,11.34,25.27,16.93,40.77,17.01Z"/>
        <path class="cls-1" d="m228.06,494.87c33.52-31.89,68.22-64.9,103.09-98.06,36.04,34.93,71.74,69.52,107.74,104.42,7.26-8.52,13.81-16.5,20.71-24.16,2.63-2.92,2.46-4.54-.33-7.28-33.81-33.36-67.47-66.86-101.24-100.26-1.49-1.47-3.67-2.26-5.3-3.23,16.36-20.37,16.94-40.26,5.9-60.81-1.9-3.55-1.45-5.26,1.19-7.92,31.36-31.56,62.59-63.25,93.85-94.92,1.26-1.27,2.47-2.59,3.71-3.9-9.81-9.56-19.29-18.8-29.18-28.43-32.48,31.99-65.42,64.42-98.54,97.04-32.97-32.48-65.59-64.6-98.6-97.11-9.71,8.72-19.04,17.1-28.11,25.24,35.62,36.19,70.75,71.89,105.9,107.6-11.88,21.52-11,33.18-1.45,51.79,1.86,3.63,1.53,5.64-1.32,8.5-33.78,33.86-67.42,67.86-101.09,101.82-1.38,1.39-2.7,2.85-4.82,5.12,9.26,8.16,18.23,16.05,27.88,24.55Z"/>
        <path d="m228.06,494.87c-9.65-8.5-18.62-16.39-27.88-24.55,2.13-2.26,3.44-3.72,4.82-5.12,33.67-33.97,67.31-67.97,101.09-101.82,2.85-2.86,3.18-4.88,1.32-8.5-9.55-18.61-10.43-30.26,1.45-51.79-35.15-35.72-70.28-71.41-105.9-107.6,9.07-8.14,18.4-16.52,28.11-25.24,33.01,32.51,65.62,64.64,98.6,97.11,33.12-32.62,66.06-65.05,98.54-97.04,9.89,9.63,19.37,18.87,29.18,28.43-1.24,1.31-2.45,2.63-3.71,3.9-31.26,31.66-62.49,63.35-93.85,94.92-2.64,2.66-3.1,4.38-1.19,7.92,11.04,20.55,10.46,40.44-5.9,60.81,1.64.97,3.81,1.76,5.3,3.23,33.77,33.4,67.43,66.91,101.24,100.26,2.78,2.74,2.96,4.36.33,7.28-6.9,7.66-13.45,15.63-20.71,24.16-36.01-34.9-71.71-69.49-107.74-104.42-34.86,33.16-69.57,66.18-103.09,98.06Z"/>
      </g>
    </symbol>
    <symbol id="loh_text" data-name="loh text" viewBox="0 0 1169.62 376.03">
      <g>
        <path d="m572.66,210.17c-9.98.14-17.78-4.16-23.26-12.26-3.34-4.94-6.08-10.31-8.8-15.63-1.22-2.39-2.61-3.3-5.35-3.29-22.16.12-44.32,0-66.48.2-1.65.01-3.9,1.49-4.8,2.95-2.54,4.08-4.32,8.63-6.77,12.78-8.63,14.62-24.75,19.57-38.56,11.99-14.69-8.06-19.89-24.64-12.8-39.82,22.45-48.1,44.81-96.24,67.15-144.39,4.03-8.68,10.1-15.29,19.09-18.74,15-5.76,31.3,1.75,39.05,17.97,5.8,12.15,11.38,24.4,17.02,36.62,16.92,36.67,33.86,73.33,50.72,110.03,8.85,19.26-5.14,41.38-26.22,41.6Zm-83.93-87.37h26.92c-4.52-9.74-8.77-18.88-13.49-29.04-4.72,10.21-8.93,19.3-13.43,29.04Zm5.11-108.12c-.84-1.02-1.57-2.69-2.4-2.75-1.79-.12-4.36-.04-5.33,1.07-3.24,3.72-6.02,7.87-8.76,11.99-1.54,2.32-1.75,5.24,1.28,6.17,1.55.48,4.4-.78,5.62-2.17,2.82-3.21,5.02-6.96,7.43-10.52.72-1.07,1.29-2.25,2.16-3.8Zm-85.49,160.19c1.05,1.38,1.71,3.13,2.7,3.36,1.53.34,4.36.17,4.8-.71,2.52-5.02,4.62-10.27,6.51-15.56.3-.85-.91-2.99-1.88-3.36-1.31-.5-4.04-.41-4.46.35-2.76,5.07-5.07,10.38-7.68,15.92Z"/>
        <path d="m1140.89,210.17c-10.18.19-18.09-4.17-23.64-12.49-3.31-4.96-5.75-10.5-8.96-15.54-.93-1.46-3.16-2.95-4.81-2.96-22.32-.19-44.65-.18-66.97,0-1.52.01-3.61,1.39-4.43,2.75-2.5,4.11-4.32,8.63-6.75,12.79-8.58,14.67-24.64,19.75-38.47,12.3-14.91-8.03-20.11-24.76-12.91-40.17,22.48-48.09,44.79-96.25,67.17-144.38,4.43-9.54,11.35-16.46,21.59-19.37,14.42-4.1,29.21,3.71,36.52,19.09,5.71,12.01,11.26,24.09,16.83,36.16,17,36.82,34,73.63,50.94,110.47,8.71,18.94-5.26,40.99-26.11,41.36Zm-70.73-116.49c-4.79,10.44-9.01,19.63-13.34,29.05h26.79c-4.49-9.7-8.69-18.77-13.45-29.05Zm-22.76-60.39c2.43-1.93,3.8-2.62,4.61-3.72,2.84-3.86,5.69-7.75,8.09-11.89.79-1.37.22-3.53.27-5.33-1.98.06-4.92-.69-5.76.31-3.68,4.41-7.02,9.17-9.83,14.17-.62,1.1,1.44,3.69,2.63,6.45Zm-71.11,141.7c1.17,1.33,1.95,3,3.14,3.37,1.32.4,3.96.08,4.37-.74,2.49-5.04,4.64-10.26,6.56-15.55.32-.87-.88-3.16-1.76-3.4-1.5-.42-4.32-.29-4.81.59-2.72,4.91-4.9,10.11-7.5,15.74Z"/>
        <path d="m107.44,212.5c-76.81.09-129.83-80.07-98.07-149.68C24.72,29.19,62.34-3.89,115.2.37c15.88,1.28,31.34,4.07,46.01,10.42,12.61,5.46,22.74,13.28,25.18,27.93,3.34,20.07-14.88,37.34-34.73,32.64-5.78-1.37-11.31-3.85-16.88-6.01-12.97-5.03-26.25-7.71-40.06-4.46-22.22,5.23-38.87,27.96-36.31,49.15,2.8,23.14,23.41,41.64,46.7,41.99,11.01.16,21.43-2.35,31.5-6.64,3.67-1.56,7.32-3.23,11.11-4.42,15.16-4.73,28.94.88,36.41,14.66,6.12,11.28,2.28,27.01-8.9,36.38-9.3,7.8-20.47,11.9-31.96,14.57-11.77,2.74-23.89,4-35.85,5.92ZM7.87,89.53c.57.8,1.47,3.43,3.04,3.93,3,.96,4.82-1.21,5.57-4.21,1.09-4.34,1.97-8.78,3.53-12.96,6.8-18.19,17.4-33.58,33.73-44.63,2.52-1.71,5.37-4.11,3.17-7.32-2.27-3.32-5.59-1.73-8.38.08-.97.63-1.91,1.33-2.84,2.03-10.89,8.28-19.68,18.41-26.21,30.4-5.33,9.79-10.28,19.78-11.61,32.68Z"/>
        <path d="m294.87,57.92c-13.99,0-26.92.03-39.85-.01-7.37-.03-14.18-1.99-19.98-6.64-7.98-6.4-11.98-14.72-10.46-24.99,1.64-11.06,8.43-18.35,18.7-22.05,4.28-1.54,9.11-2.16,13.7-2.19,28.81-.19,57.63-.15,86.45-.08,18.37.05,31.13,11.79,31.82,29.98.16,4.12-1.57,8.87-3.83,12.45-21.66,34.36-43.61,68.52-65.47,102.75-1.06,1.66-2.05,3.36-3.56,5.85,2.36.13,4.06.3,5.76.3,12.16.02,24.32,0,36.48.02,7.82.01,15.26,1.49,21.68,6.27,9.31,6.93,13.28,17.91,10.47,28.69-2.79,10.74-13.11,19.26-25.1,20.62-2.48.28-4.98.37-7.48.37-32.48.02-64.96.04-97.44,0-19.19-.02-29.43-10.45-28.45-29.57.2-3.92,1.76-8.21,3.93-11.53,22.77-34.83,45.8-69.49,68.75-104.2,1.09-1.66,2.15-3.34,3.89-6.05Zm-66.4-29.67c.73.85,1.78,3.06,2.84,3.06,1.6,0,3.68-1.15,4.73-2.47,2.76-3.46,5.23-7.19,7.47-11.01.86-1.47.78-3.5,1.14-5.28-2.12-.31-4.87-1.61-6.24-.74-5.52,3.54-8.65,8.93-9.94,16.43Z"/>
        <path d="m849.21,57.88c-7.62,0-14.59.18-21.55-.04-14.11-.45-25.97-9.8-28.5-22.22-3.64-17.88,9.9-33.19,30.13-33.61,14.82-.3,29.65-.08,44.47-.08,17.82,0,35.65-.2,53.47.09,12.95.21,23.51,5.38,28.78,17.8,7.72,18.17-6.25,37.33-27.46,38.04-6.82.23-13.65.04-21.29.04,0,2.13,0,4.04,0,5.96,0,37.48.09,74.95-.11,112.43-.03,5.06-.74,10.4-2.46,15.12-4.62,12.67-16,18.98-30.26,17.63-11.64-1.1-21.84-10.53-24.15-22.64-.71-3.73-1.03-7.59-1.04-11.4-.07-36.98-.04-73.95-.04-110.93v-6.2Zm-46-29.95c.63.86,1.66,3.35,2.58,3.31,1.83-.09,4.13-1.12,5.29-2.54,2.6-3.18,4.83-6.72,6.8-10.34.95-1.74.96-3.98,1.39-6-2.31-.16-5.26-1.31-6.8-.3-5.21,3.42-7.88,8.81-9.26,15.86Z"/>
        <path d="m700.67,77.91c15.83,0,31.65-.01,47.48,0,8.06,0,15.55,1.96,21.79,7.27,8.66,7.37,12.07,16.79,8.95,27.77-3.16,11.11-11.37,17.27-22.33,19.88-2.73.65-5.61.9-8.42.9-31.99.06-63.97.21-95.95-.13-5.47-.06-11.33-1.46-16.3-3.76-10.83-5-16.74-16.11-15.42-26.76,1.43-11.56,10.39-21.35,22.35-24.05,3.38-.76,6.92-1.06,10.39-1.08,15.83-.11,31.65-.05,47.48-.05Zm-75.62,25.6c.67.85,1.6,3.1,2.69,3.18,1.61.11,3.88-.88,4.91-2.17,2.66-3.32,4.99-6.94,7.05-10.67.94-1.7.94-3.92,1.37-5.9-2.29-.13-5.26-1.23-6.75-.2-5.05,3.49-7.83,8.77-9.28,15.76Z"/>
        <path d="m689.14,326.17c0,11.9.15,22.34-.04,32.77-.19,10.19-7.14,16.75-16.43,15.93-8.12-.72-13.29-6.85-13.4-16.43-.15-14-.05-28-.05-42,0-10.83-.03-21.67.01-32.5.02-6.81,3.92-12.49,9.95-14.71,6.01-2.2,12.02-.58,16.56,4.85,6.72,8.06,13.26,16.27,19.89,24.4,1.22,1.49,2.53,2.9,4.81,5.5,0-7.48-.23-13.58.05-19.66.42-8.97,5.48-14.89,13.06-15.84,8.53-1.08,16.42,5.14,16.52,14.13.31,25.99.27,51.99.03,77.99-.07,7.92-6.54,13.98-13.99,14.31-7.82.34-15.22-4.71-14.93-12.81.37-10.4-5.72-16.45-11.37-23.25-3.19-3.84-6.42-7.64-10.66-12.68Zm32.79-51.53c-1.46-.49-3.2-1.37-3.4-1.1-1.98,2.65-3.7,5.49-5.5,8.27.92.54,2.57,1.65,2.65,1.54,2.01-2.58,3.86-5.29,6.25-8.71Zm-59.31,8.92c2.52-.53,8.35-6.89,7.62-8.47-.36-.77-2.76-1.56-3.26-1.15-2.92,2.42-5.54,5.2-4.36,9.62Z"/>
        <path d="m1118.14,299.14c9.31-9.29,17.57-17.7,26.02-25.92,6.64-6.45,15.86-6.74,21.46-.96,5.4,5.58,5.29,14.34-.7,20.75-6.14,6.56-12.62,12.8-19,19.14-1.29,1.28-2.78,2.36-4.43,3.74,8.02,11.29,15.76,21.86,23.09,32.72,2.25,3.33,4.07,7.31,4.79,11.23,1,5.46-1.36,10.18-6.32,13.07-5.22,3.04-10.61,2.99-15.47-.62-2.48-1.84-4.55-4.38-6.39-6.9-6.65-9.13-13.13-18.39-20.59-28.88-1.06,2.65-2.26,4.33-2.34,6.07-.26,5.48.01,10.99-.14,16.48-.27,9.52-6.39,15.89-15.04,15.86-8.49-.03-14.65-6.1-14.74-15.56-.22-25.14-.21-50.28,0-75.42.08-9.16,6.66-15.64,14.83-15.62,8.41.02,14.66,6.69,14.94,16.09.13,4.46.02,8.93.02,14.72Zm-19.07-24.45c-.22-.58-.43-1.15-.65-1.73-1.52.57-3.69.7-4.43,1.79-1.5,2.21-2.22,4.95-3.26,7.47,1.2,0,3.02.49,3.49-.1,1.84-2.29,3.26-4.93,4.84-7.43Zm43.6,8.66c3.21-3.81,5.36-6.36,7.51-8.9-1.05-.53-2.67-1.79-3.07-1.48-2.04,1.6-3.93,3.47-5.49,5.54-.44.59.42,2.16,1.05,4.83Z"/>
        <path d="m1073.24,358.86c-.04,7.76-4.4,13.91-10.31,15.86-6.1,2.01-12.22,0-16.39-5.4-.31-.4-.74-.77-.86-1.22-2.23-8.47-8.44-9.08-15.76-8.58-7.79.54-15.65.08-23.45.53-1.81.1-3.75,1.84-5.17,3.28-1.23,1.25-1.71,3.21-2.7,4.74-4.46,6.95-12.23,9.31-19.04,5.87-7.37-3.73-10.75-12.44-7.29-19.96,11.54-25.09,23.21-50.11,34.92-75.12,2.97-6.36,7.92-10.5,15.15-10.42,7.23.08,12.02,4.42,14.96,10.75,11.57,24.89,23.09,49.8,34.55,74.74.88,1.92,1.16,4.11,1.39,4.94Zm-44.17-28.3c-2.42-5.05-4.49-9.37-6.98-14.57-2.48,5.38-4.49,9.75-6.71,14.57h13.7Zm-10.89-55.63c-1.29-.77-2.61-1.65-2.67-1.57-2.18,2.87-4.25,5.82-6.33,8.76.77.37,2.06,1.21,2.22,1.04,2.25-2.54,4.34-5.21,6.78-8.23Zm-36.16,75.91c-1.39-.93-2.18-1.47-2.98-2-1.58,2.72-3.24,5.4-4.63,8.21-.14.29,1.26,1.35,1.95,2.05,1.77-2.58,3.54-5.16,5.67-8.26Z"/>
        <path d="m868.07,266.35c8.37,1.96,16.82,3.64,25.08,6.01,3.23.93,6.34,3.02,8.96,5.22,5.89,4.94,7.34,13.02,3.88,18.91-3.99,6.79-10.66,9.31-18.44,6.92-5.55-1.71-10.96-4.14-16.63-5.1-18.79-3.21-34.15,14.56-27.67,31.63,4.57,12.05,17.99,18.22,31.9,14.46,3.83-1.04,7.48-2.75,11.23-4.1,8.54-3.07,16.12-.36,20.01,7.11,3.35,6.43.95,15.04-5.95,19.72-13.11,8.89-42.26,13.96-61.83,1.37-20.08-12.92-30.21-34.58-25.98-56.78,4.05-21.23,21.9-39.24,43.26-43.38,3.9-.76,7.93-.79,11.9-1.16l.28-.81Zm-52.06,48.42c.62.33,1.25.66,1.87.98.92-1.56,2.23-3.01,2.7-4.7,3.05-10.91,8.61-20.04,17.83-26.87,1.2-.89,1.64-2.8,2.44-4.23-1.74.19-3.96-.24-5.16.67-9.75,7.34-16.13,17.06-19.29,28.84-.45,1.69-.28,3.54-.39,5.31Z"/>
        <path d="m926.12,321.48c0-12.5-.04-24.99.02-37.49.03-5.92,2.47-10.7,7.62-13.76,7.99-4.74,18.68-.35,21.25,8.8.75,2.68.94,5.59.95,8.4.07,22.83.05,45.66.03,68.48,0,1.83-.04,3.68-.32,5.48-1.32,8.7-7.49,13.96-15.72,13.51-7.93-.43-13.58-6.25-13.75-14.93-.25-12.83-.06-25.66-.06-38.49h-.02Zm11.06-46.86c-.28-.58-.55-1.17-.83-1.75-1.65.7-3.95.95-4.81,2.19-1.42,2.04-1.91,4.72-2.79,7.13,1.23-.04,3.07.43,3.58-.2,1.86-2.26,3.27-4.89,4.86-7.38Z"/>
        <path d="m763.96,321.52c0-12.83-.19-25.66.08-38.48.14-6.85,4.47-12.31,10.13-14.05,8.43-2.6,17.3,2.72,18.93,11.44.4,2.11.52,4.31.52,6.47.04,23.32.05,46.65-.01,69.97,0,2.48-.17,5.04-.82,7.42-1.89,6.99-8.27,11.2-15.56,10.59-7.2-.61-12.29-5.77-13.18-13.38-.1-.83-.19-1.66-.19-2.49-.01-12.49,0-24.99,0-37.48.04,0,.08,0,.11,0Zm10.94-46.98c-.23-.49-.45-.97-.68-1.46-1.7.65-4.13.82-4.95,2.06-1.42,2.14-1.85,4.95-2.69,7.48,1.22-.22,2.97,0,3.56-.73,1.82-2.25,3.21-4.86,4.76-7.33Z"/>
        <path class="cls-1" d="m493.84,14.69c-.88,1.55-1.44,2.73-2.16,3.8-2.41,3.56-4.61,7.32-7.43,10.52-1.22,1.39-4.07,2.65-5.62,2.17-3.03-.93-2.81-3.85-1.28-6.17,2.74-4.13,5.52-8.27,8.76-11.99.97-1.11,3.54-1.19,5.33-1.07.83.06,1.56,1.72,2.4,2.75Z"/>
        <path class="cls-1" d="m408.34,174.88c2.6-5.54,4.91-10.86,7.68-15.92.42-.76,3.14-.85,4.46-.35.96.37,2.18,2.51,1.88,3.36-1.89,5.3-3.99,10.54-6.51,15.56-.44.88-3.26,1.05-4.8.71-1-.22-1.65-1.97-2.7-3.36Z"/>
        <path class="cls-1" d="m1047.39,33.29c-1.19-2.76-3.25-5.36-2.63-6.45,2.81-5,6.15-9.76,9.83-14.17.84-1.01,3.78-.26,5.76-.31-.05,1.8.52,3.96-.27,5.33-2.4,4.14-5.25,8.02-8.09,11.89-.81,1.1-2.17,1.79-4.61,3.72Z"/>
        <path class="cls-1" d="m976.28,175c2.61-5.63,4.79-10.83,7.5-15.74.49-.88,3.31-1.01,4.81-.59.88.25,2.08,2.53,1.76,3.4-1.92,5.29-4.07,10.51-6.56,15.55-.41.82-3.05,1.14-4.37.74-1.19-.36-1.97-2.04-3.14-3.37Z"/>
        <path class="cls-1" d="m7.87,89.53c1.33-12.89,6.28-22.88,11.61-32.68,6.53-12,15.32-22.12,26.21-30.4.93-.7,1.86-1.4,2.84-2.03,2.8-1.82,6.11-3.4,8.38-.08,2.2,3.21-.65,5.62-3.17,7.32-16.33,11.05-26.92,26.43-33.73,44.63-1.56,4.18-2.44,8.61-3.53,12.96-.75,3-2.57,5.17-5.57,4.21-1.57-.5-2.47-3.13-3.04-3.93Z"/>
        <path class="cls-1" d="m228.47,28.25c1.29-7.5,4.42-12.89,9.94-16.43,1.36-.87,4.12.43,6.24.74-.35,1.77-.27,3.8-1.14,5.28-2.24,3.82-4.71,7.55-7.47,11.01-1.05,1.32-3.13,2.48-4.73,2.47-1.06,0-2.11-2.22-2.84-3.06Z"/>
        <path class="cls-1" d="m803.21,27.93c1.39-7.06,4.06-12.44,9.26-15.86,1.54-1.01,4.49.14,6.8.3-.44,2.01-.45,4.26-1.39,6-1.97,3.62-4.2,7.16-6.8,10.34-1.16,1.42-3.46,2.45-5.29,2.54-.91.04-1.95-2.44-2.58-3.31Z"/>
        <path class="cls-1" d="m625.05,103.51c1.44-6.99,4.22-12.27,9.28-15.76,1.49-1.03,4.46.08,6.75.2-.43,1.98-.43,4.2-1.37,5.9-2.06,3.72-4.39,7.35-7.05,10.67-1.03,1.29-3.29,2.28-4.91,2.17-1.09-.08-2.02-2.33-2.69-3.18Z"/>
        <path class="cls-1" d="m721.93,274.64c-2.39,3.43-4.24,6.13-6.25,8.71-.09.11-1.73-1-2.65-1.54,1.8-2.79,3.52-5.63,5.5-8.27.2-.27,1.95.61,3.4,1.1Z"/>
        <path class="cls-1" d="m662.61,283.56c-1.18-4.43,1.44-7.2,4.36-9.62.49-.41,2.9.38,3.26,1.15.73,1.58-5.1,7.94-7.62,8.47Z"/>
        <path class="cls-1" d="m1099.07,274.69c-1.58,2.51-2.99,5.14-4.84,7.43-.47.59-2.29.1-3.49.1,1.04-2.52,1.76-5.26,3.26-7.47.74-1.09,2.91-1.22,4.43-1.79.22.58.43,1.15.65,1.73Z"/>
        <path class="cls-1" d="m1142.66,283.35c-.63-2.68-1.49-4.25-1.05-4.83,1.56-2.07,3.45-3.94,5.49-5.54.39-.31,2.01.94,3.07,1.48-2.15,2.54-4.29,5.09-7.51,8.9Z"/>
        <path class="cls-1" d="m1029.06,330.56h-13.7c2.22-4.82,4.23-9.19,6.71-14.57,2.49,5.2,4.56,9.52,6.98,14.57Z"/>
        <path class="cls-1" d="m1018.18,274.93c-2.44,3.02-4.53,5.69-6.78,8.23-.15.17-1.45-.67-2.22-1.04,2.08-2.94,4.15-5.9,6.33-8.76.06-.08,1.38.8,2.67,1.57Z"/>
        <path class="cls-1" d="m982.01,350.84c-2.12,3.1-3.89,5.68-5.67,8.26-.69-.7-2.09-1.76-1.95-2.05,1.4-2.81,3.05-5.49,4.63-8.21.79.53,1.59,1.07,2.98,2Z"/>
        <path class="cls-1" d="m816.01,314.77c.11-1.78-.06-3.63.39-5.31,3.15-11.78,9.54-21.5,19.29-28.84,1.2-.91,3.42-.48,5.16-.67-.79,1.44-1.24,3.35-2.44,4.23-9.22,6.83-14.78,15.96-17.83,26.87-.47,1.69-1.78,3.14-2.7,4.7-.62-.33-1.25-.66-1.87-.98Z"/>
        <path class="cls-1" d="m937.18,274.62c-1.58,2.49-3,5.11-4.86,7.38-.51.62-2.35.16-3.58.2.88-2.41,1.37-5.1,2.79-7.13.87-1.24,3.16-1.5,4.81-2.19.28.58.55,1.17.83,1.75Z"/>
        <path class="cls-1" d="m774.91,274.54c-1.55,2.47-2.93,5.08-4.76,7.33-.59.73-2.34.52-3.56.73.84-2.53,1.27-5.33,2.69-7.48.82-1.24,3.25-1.41,4.95-2.06.23.49.45.97.68,1.46Z"/>
      </g>
    </symbol>
  </defs>
  <g id="Layer_2-2" data-name="Layer 2">
    <use width="1169.62" height="376.03" transform="translate(733.25 223.53)" xlink:href="#loh_text"/>
    <use width="666.56" height="666.26" xlink:href="#LOH"/>
  </g>
</svg>