<?xml version="1.0" encoding="UTF-8"?>
<!DOCTYPE svg PUBLIC "-//W3C//DTD SVG 1.1//EN" "http://www.w3.org/Graphics/SVG/1.1/DTD/svg11.dtd">
<svg xmlns="http://www.w3.org/2000/svg" version="1.1" width="667px" height="666px" style="shape-rendering:geometricPrecision; text-rendering:geometricPrecision; image-rendering:optimizeQuality; fill-rule:evenodd; clip-rule:evenodd" xmlns:xlink="http://www.w3.org/1999/xlink">
<g><path style="opacity:0.985" fill="#000000" d="M 320.5,-0.5 C 330.167,-0.5 339.833,-0.5 349.5,-0.5C 369.781,2.54226 387.781,10.7089 403.5,24C 483.695,104.528 563.528,185.361 643,266.5C 654.994,281.994 662.827,299.327 666.5,318.5C 666.5,328.167 666.5,337.833 666.5,347.5C 663.351,367.471 655.518,385.471 643,401.5C 562.805,481.362 482.305,560.862 401.5,640C 385.785,653.402 367.785,661.902 347.5,665.5C 337.5,665.5 327.5,665.5 317.5,665.5C 296.835,662.664 278.502,654.497 262.5,641C 182.305,560.472 102.472,479.639 23,398.5C 10.7814,382.733 2.94802,365.067 -0.5,345.5C -0.5,335.833 -0.5,326.167 -0.5,316.5C 2.93899,296.949 10.7723,279.283 23,263.5C 103.528,183.305 184.361,103.472 265.5,24C 281.694,10.9005 300.027,2.73388 320.5,-0.5 Z"/></g>
<g><path style="opacity:1" fill="#a2ce43" d="M 326.5,43.5 C 344.837,43.1105 360.837,48.9439 374.5,61C 453,139.5 531.5,218 610,296.5C 625.7,317.163 627.7,339.163 616,362.5C 613.385,366.783 610.385,370.783 607,374.5C 529.5,450 452,525.5 374.5,601C 351.709,622.243 326.375,625.91 298.5,612C 295.5,609.667 292.5,607.333 289.5,605C 210.333,525.833 131.167,446.667 52,367.5C 35.7026,345.706 34.3693,323.04 48,299.5C 62.1374,284.362 76.6374,269.529 91.5,255C 159.167,189.333 226.833,123.667 294.5,58C 304.138,50.677 314.805,45.8437 326.5,43.5 Z"/></g>
<g><path style="opacity:1" fill="#020201" d="M 230.5,169.5 C 263.174,202.174 296.174,234.508 329.5,266.5C 362.181,233.986 395.014,201.652 428,169.5C 437.03,178.864 446.363,187.864 456,196.5C 456.667,197.5 456.667,198.5 456,199.5C 423.695,232.806 391.028,265.806 358,298.5C 357.333,300.167 357.333,301.833 358,303.5C 369.221,324.986 367.721,345.486 353.5,365C 389.671,400.171 425.504,435.671 461,471.5C 461.667,472.5 461.667,473.5 461,474.5C 453.833,483 446.667,491.5 439.5,500C 437.641,498.872 435.641,497.539 433.5,496C 399.638,462.47 365.471,429.303 331,396.5C 297.197,427.968 263.697,459.801 230.5,492C 229.241,492.982 227.908,493.315 226.5,493C 217.703,485.872 209.203,478.372 201,470.5C 200.333,469.833 200.333,469.167 201,468.5C 235.972,432.528 271.305,396.861 307,361.5C 307.781,360.271 308.281,358.938 308.5,357.5C 303.49,348.802 300.49,339.469 299.5,329.5C 299.561,326.097 300.061,322.764 301,319.5C 303.402,313.39 305.735,307.39 308,301.5C 272.472,266.306 237.305,230.806 202.5,195C 211.73,186.265 221.063,177.765 230.5,169.5 Z"/></g>
</svg>
