<svg width="65" height="65" viewBox="0 0 65 65" fill="none" xmlns="http://www.w3.org/2000/svg">
<path fill-rule="evenodd" clip-rule="evenodd" d="M35.5469 11.1719C35.5469 10.3638 35.2259 9.58881 34.6545 9.01741C34.0831 8.44601 33.3081 8.125 32.5 8.125C31.6919 8.125 30.9169 8.44601 30.3455 9.01741C29.7741 9.58881 29.4531 10.3638 29.4531 11.1719V29.4531H11.1719C10.3638 29.4531 9.58881 29.7741 9.01741 30.3455C8.44601 30.9169 8.125 31.6919 8.125 32.5C8.125 33.3081 8.44601 34.0831 9.01741 34.6545C9.58881 35.2259 10.3638 35.5469 11.1719 35.5469H29.4531V53.8281C29.4531 54.6362 29.7741 55.4112 30.3455 55.9826C30.9169 56.554 31.6919 56.875 32.5 56.875C33.3081 56.875 34.0831 56.554 34.6545 55.9826C35.2259 55.4112 35.5469 54.6362 35.5469 53.8281V35.5469H53.8281C54.6362 35.5469 55.4112 35.2259 55.9826 34.6545C56.554 34.0831 56.875 33.3081 56.875 32.5C56.875 31.6919 56.554 30.9169 55.9826 30.3455C55.4112 29.7741 54.6362 29.4531 53.8281 29.4531H35.5469V11.1719Z" fill="#0C1A49"/>
</svg>
